<svg version="1.1" id="Logo" xmlns="http://www.w3.org/2000/svg" xmlns:xlink="http://www.w3.org/1999/xlink" x="0px" y="0px" width="1104.17676px" height="177.5px" viewBox="0 0 1104.17676 177.5" style="enable-background:new 0 0 1104.17676 177.5;" xml:space="preserve" preserveAspectRatio="xMinYMin meet">
<style type="text/css">
	.st0{display:none;}
	.st1{display:inline;fill:#1E2021;}
	.st2{fill:#F7ACB4;}
	.st3{fill:url(#SVGID_1_);stroke:#8B0304;stroke-width:8;stroke-miterlimit:10;}
	.st4{fill:#8A181A;}
	.st5{fill:none;stroke:#8A181A;stroke-miterlimit:10;}
	.st6{fill:url(#SVGID_2_);stroke:#8B0304;stroke-width:8;stroke-miterlimit:10;}
	.st7{fill:#8B0304;}
</style>
<g class="st0">
	<rect x="-1214.17676" y="-437" class="st1" width="1280" height="1024"></rect>
</g>
<g id="Layer_8">
	<g id="Right_8">
		<g id="Right_8_Bottom">
		</g>
		<g id="Right_8_Top">
		</g>
	</g>
	<g id="Left_8">
		<g id="Right_8_Bottom_copy_2">
		</g>
		<g id="Right_8_Top_copy_2">
		</g>
	</g>
	<circle class="st2" cx="88" cy="90" r="84"></circle>
	<linearGradient id="SVGID_1_" gradientUnits="userSpaceOnUse" x1="4" y1="88.75" x2="173.5" y2="88.75">
		<stop offset="0" style="stop-color:#FFD837"></stop>
		<stop offset="1" style="stop-color:#FFC719"></stop>
	</linearGradient>
	<path class="st3" d="M88.75,5.71212c45.86057,0,83.03787,37.17732,83.03787,83.03788S134.61057,171.78787,88.75,171.78787
		S5.71212,134.61057,5.71212,88.75S42.88944,5.71212,88.75,5.71212 M88.75,4c-11.44043,0-22.53954,2.24102-32.98906,6.66078
		C45.66877,14.9294,36.60544,21.03996,28.8227,28.8227S14.9294,45.66877,10.66078,55.76094C6.24102,66.21046,4,77.30959,4,88.75
		c0,11.44043,2.24102,22.53954,6.66078,32.98906c4.26862,10.09216,10.37918,19.1555,18.16191,26.93823
		c7.78274,7.78276,16.84607,13.89331,26.93825,18.16193C66.21046,171.25899,77.30957,173.5,88.75,173.5
		s22.53954-2.24101,32.98906-6.66078c10.09216-4.26862,19.1555-10.37917,26.93823-18.16193
		c7.78276-7.78273,13.89331-16.84607,18.16193-26.93823C171.25899,111.28954,173.5,100.19043,173.5,88.75
		c0-11.44041-2.24101-22.53954-6.66078-32.98906c-4.26862-10.09217-10.37917-19.15551-18.16193-26.93825
		c-7.78273-7.78273-16.84607-13.89329-26.93823-18.16191C111.28954,6.24102,100.19043,4,88.75,4L88.75,4z"></path>
	<g id="XMLID_2_">
		<g>
			<path class="st4" d="M75.25278,116.90633l0.30818-1.53406l0.35955-1.80116l4.72546-23.62727l0.54787-2.7394l5.66712-28.33561
				c2.49627-15.38512,15.84397-27.13027,31.93791-27.13027c17.87112,0,32.35909,14.48797,32.35909,32.35909
				c0,10.01249-4.25977,18.96346-11.31027,24.89767c6.92381,5.93421,11.31027,14.74479,11.31027,24.57579
				c0,17.87112-14.48798,32.35909-32.35909,32.35909c-12.47452,0-23.29855-7.05394-28.69858-17.39172l11.98485-10.02276
				l0.02055,0.02397c3.42424,6.50607,8.8996,12.0499,16.69318,12.0499c9.39954,0,17.01849-7.61893,17.01849-17.01848
				c0-9.31736-7.4854-16.88494-16.77194-17.01506c-0.01028-0.00343-0.02397-0.00343-0.03767,0L97.1337,96.45333l1.42106-7.10873
				l1.62309-8.12915h17.67937c0.36981,0.02397,0.64718,0,1.02727,0c9.39954,0,16.93288-7.71824,16.93288-17.11779
				s-7.61894-17.01848-17.01849-17.01848c-8.22845,0-15.08721,5.83833-16.67264,13.59424L102.1057,60.67l-0.3253,1.62994
				l-0.36297,1.79773l-4.72546,23.6307l-0.54788,2.7394l-5.66027,28.31848c-2.49285,15.39197-15.8474,27.14397-31.94133,27.14397
				c-17.87112,0-32.35909-14.48796-32.35909-32.35909c0-10.00906,4.25976-18.96003,11.30685-24.89424
				c-6.92039-5.93421-11.30685-14.74479-11.30685-24.57922c0-17.87112,14.48797-32.35909,32.35909-32.35909
				c12.46767,0,23.2917,7.05394,28.69515,17.39173L75.25621,59.15306l-0.02055-0.02397
				c-3.42424-6.50606-8.8996-12.04991-16.69318-12.04991c-9.39954,0-17.01849,7.61894-17.01849,17.01848
				c0,9.31737,7.4854,16.88152,16.76852,17.01506h0.04451l21.86721,0.10273l-1.42106,7.11215l-1.62309,8.12572H59.48415
				c-0.37324-0.02396-0.6506,0-1.02727,0c-9.39954,0-16.93288,7.71825-16.93288,17.11779s7.61894,17.01848,17.01849,17.01848
				c8.25927,0,15.14543-5.88284,16.69318-13.68669L75.25278,116.90633z"></path>
			<path class="st4" d="M117.85722,81.21545h1.02727C118.50439,81.21545,118.22703,81.23943,117.85722,81.21545z"></path>
			<path class="st4" d="M59.48415,96.45333h-1.02727C58.83355,96.45333,59.11091,96.42937,59.48415,96.45333z"></path>
		</g>
		<g>
			<path class="st5" d="M139.8477,88.99533c6.92381,5.93421,11.31027,14.74479,11.31027,24.57579
				c0,17.87112-14.48798,32.35909-32.35909,32.35909c-12.47452,0-23.29855-7.05394-28.69858-17.39172
				c-0.00685-0.01712-0.01712-0.03766-0.0274-0.05478"></path>
			<polyline class="st5" points="102.19815,118.41985 102.08515,118.51572 90.1003,128.53848 89.95648,128.65834 			"></polyline>
			<path class="st5" d="M119.04543,96.55606c9.28654,0.13012,16.77194,7.6977,16.77194,17.01506
				c0,9.39954-7.61894,17.01848-17.01849,17.01848c-7.79358,0-13.26894-5.54384-16.69318-12.0499"></path>
			<path class="st5" d="M118.79888,96.55264c0.06848,0,0.14039,0,0.20888,0.00343"></path>
			<path class="st5" d="M119.04543,96.55606c-0.01028-0.00343-0.02397-0.00343-0.03767,0L97.1337,96.45333h-0.15752"></path>
			<polyline class="st5" points="102.1057,60.67 101.7804,62.29994 101.41743,64.09766 96.69197,87.72836 96.14409,90.46776 
				90.48382,118.78624 90.46327,118.88212 			"></polyline>
			<path class="st5" d="M86.78564,59.34482c0.02397-0.16094,0.04794-0.31845,0.07533-0.47597
				c2.49627-15.38512,15.84397-27.13027,31.93791-27.13027c17.87112,0,32.35909,14.48797,32.35909,32.35909
				c0,10.01249-4.25977,18.96346-11.31027,24.89767"></path>
			<path class="st5" d="M102.1057,60.7693c0.00685-0.03082,0.01369-0.06506,0.02055-0.09588
				c1.58543-7.75591,8.44418-13.59424,16.67264-13.59424c9.39954,0,17.01849,7.61894,17.01849,17.01848
				s-7.53334,17.11779-16.93288,17.11779c-0.38009,0-0.65746,0.02397-1.02727,0"></path>
			<polyline class="st5" points="118.88448,81.21545 117.85722,81.21545 100.17785,81.21545 100.05116,81.21545 			"></polyline>
			<polyline class="st5" points="97.12685,96.48758 97.1337,96.45333 98.55476,89.3446 100.17785,81.21545 100.20525,81.07848 			
				"></polyline>
			<path class="st5" d="M37.49024,88.67688c-6.92039-5.93421-11.30685-14.74479-11.30685-24.57922
				c0-17.87112,14.48797-32.35909,32.35909-32.35909c12.46767,0,23.2917,7.05394,28.69515,17.39173
				c0.01028,0.02055,0.02055,0.03767,0.03082,0.05821"></path>
			<polyline class="st5" points="75.13979,59.24894 75.25621,59.15306 87.23763,49.1303 87.38145,49.01046 			"></polyline>
			<path class="st5" d="M58.29251,81.11272C49.0094,80.97918,41.524,73.41503,41.524,64.09766
				c0-9.39954,7.61894-17.01848,17.01849-17.01848c7.79358,0,13.26894,5.54385,16.69318,12.04991"></path>
			<path class="st5" d="M58.54248,81.11615c-0.06849,0-0.13697,0-0.20546-0.00343"></path>
			<polyline class="st5" points="58.29251,81.11272 58.33703,81.11272 80.20424,81.21545 80.36176,81.21545 			"></polyline>
			<polyline class="st5" points="75.23566,116.99879 75.25278,116.90633 75.56097,115.37228 75.92052,113.57112 80.64597,89.94385 
				81.19385,87.20445 86.86097,58.86885 86.87809,58.78667 			"></polyline>
			<path class="st5" d="M90.55573,118.32739c-0.02396,0.15409-0.04794,0.30818-0.07191,0.45885
				c-2.49285,15.39197-15.8474,27.14397-31.94133,27.14397c-17.87112,0-32.35909-14.48796-32.35909-32.35909
				c0-10.00906,4.25976-18.96003,11.30685-24.89424"></path>
			<path class="st5" d="M75.23566,116.90291c-1.54775,7.80385-8.43391,13.68669-16.69318,13.68669
				c-9.39954,0-17.01849-7.61893-17.01849-17.01848s7.53334-17.11779,16.93288-17.11779c0.37667,0,0.65403-0.02396,1.02727,0"></path>
			<polyline class="st5" points="58.45688,96.45333 59.48415,96.45333 77.16009,96.45333 77.29021,96.45333 			"></polyline>
			<polyline class="st5" points="80.21109,81.18121 80.20424,81.21545 78.78318,88.32761 77.16009,96.45333 77.1327,96.5903 			"></polyline>
		</g>
	</g>
</g>
<g>
	<path class="st7" d="M249.18359,29.45117v17.28027c0.81543,0.09668,1.63184,0.15625,2.44824,0.17969
		c0.81543,0.0249,1.60742,0.03613,2.375,0.03613h4.75195c1.24805,0.04834,2.23242-0.01465,2.95313-0.18994
		c0.71973-0.17578,1.10352-0.61572,1.15137-1.32178l0.43262-4.17627h2.87891c0,0.48047-0.01172,0.93604-0.03516,1.36816
		c-0.02539,0.43164-0.03613,0.86377-0.03613,1.2959c0,0.19238-0.0127,0.396-0.03613,0.61182
		c-0.02441,0.21631-0.03516,0.4209-0.03516,0.6123c0,0.67236-0.01367,1.3208-0.03711,1.94385
		c-0.02441,0.62451-0.03516,1.27246-0.03516,1.94385c0,0.86426,0.01074,1.72803,0.03516,2.59229
		c0.02344,0.86377,0.06055,1.72803,0.1084,2.5918c0,0.43213,0.01074,0.86426,0.03613,1.2959
		c0.02344,0.43213,0.03516,0.86426,0.03516,1.29639l-2.87891-0.07227l-0.43262-3.6001
		c-0.09668-0.95947-0.49316-1.63086-1.18848-2.01563c-0.69531-0.38379-1.66797-0.57617-2.91602-0.57617h-4.75195
		c-0.76758,0.04834-1.55957,0.08447-2.375,0.10791c-0.81641,0.0249-1.63281,0.08447-2.44824,0.17871V69.9165
		c1.53613,0.0957,3.07129,0.16748,4.6084,0.21484c1.53516,0.04834,3.07031,0.07178,4.60742,0.07178
		c0.47949,0,0.9834-0.01123,1.51172-0.03564c0.52734-0.02393,1.05566-0.05957,1.58398-0.1084
		c1.19922-0.09521,2.32813-0.22705,3.38477-0.396c1.05469-0.16748,1.75195-0.34717,2.08789-0.53955
		c0.04688,0,0.0957-0.01172,0.14355-0.03613c0.04785-0.02393,0.07227-0.05957,0.07227-0.10791l1.65527-6.84033h2.80859
		l-0.79199,11.37598l-0.36035,0.57617c-1.2002,0.0957-2.60352,0.16748-4.21094,0.21582
		c-1.60938,0.04736-3.25293,0.07227-4.93262,0.07227c-0.38477,0-0.78027,0-1.18848,0s-0.80371,0-1.1875,0
		c-1.15234,0-2.25684,0-3.3125,0c-1.05664,0-2.01563-0.0249-2.87891-0.07227c-0.48047,0-0.97266-0.01221-1.47656-0.03564
		c-0.50391-0.0249-0.99707-0.03613-1.47656-0.03613c-0.96094-0.04834-1.93164-0.08447-2.91602-0.10791
		c-0.98438-0.0249-1.97949-0.03613-2.9873-0.03613c-1.00879,0-2.00488,0.01123-2.98828,0.03613
		c-0.98438,0.02344-1.95605,0.05957-2.91602,0.10791c-0.48047,0-0.94824,0.01123-1.40332,0.03613
		c-0.45703,0.02344-0.90039,0.03564-1.33203,0.03564v-1.65576l2.30273-1.2959c0.57617-0.28809,0.96094-0.75635,1.15234-1.4043
		s0.28906-1.52295,0.28906-2.62793V34.99512c0-1.48682-0.02539-2.71094-0.07227-3.67188
		c-0.04883-0.95947-0.19336-1.65576-0.43262-2.08789c-0.19238-0.38379-0.49316-0.67188-0.89941-0.86426
		c-0.4082-0.19092-1.09277-0.31152-2.05273-0.35986l-2.66406-0.28809v-2.66406c0.81641,0.04883,1.58398,0.08447,2.30469,0.1084
		c0.71973,0.02441,1.41504,0.03564,2.08789,0.03564c1.34375,0.04834,2.5918,0.08447,3.74414,0.1084
		c1.15234,0.02441,2.18359,0.03564,3.0957,0.03564c2.25586,0,4.32031-0.01123,6.19141-0.03564
		c1.87305-0.02393,3.60059-0.06006,5.18457-0.1084c0.7666,0,1.52344-0.01123,2.26855-0.03564
		c0.74316-0.02393,1.45117-0.03613,2.12305-0.03613c0.38379,0,0.74414,0,1.08008,0s0.67188-0.02344,1.00781-0.07227
		c0.33594,0,0.66016,0,0.97266,0c0.31152,0,0.63477,0,0.97168,0c0.28809,0,0.57617,0,0.86426,0s0.55078,0.0249,0.79199,0.07227
		c0.47949,0,0.93652,0,1.36816,0s0.86328,0.0249,1.2959,0.07178c0.38379,0,0.75586,0.0127,1.11621,0.03613
		c0.35938,0.0249,0.70703,0.06104,1.04297,0.10791l0.43262,0.43213l-1.00781,10.22412h-2.59277l-0.5752-5.3999
		c-0.04785-0.38379-0.66113-0.67188-1.83594-0.86426c-1.17676-0.19141-2.45996-0.31152-3.85254-0.35986
		c-0.43164-0.04736-0.87598-0.07227-1.33203-0.07227c-0.45703,0-0.87598,0-1.25977,0c-1.53711,0-3.07227,0.0127-4.60742,0.03613
		c-1.53711,0.0249-3.07227,0.08447-4.6084,0.18018V29.45117z"></path>
	<path class="st7" d="M289.79004,59.25928l-3.02344,8.06396c-0.09668,0.38477-0.17969,0.72021-0.25195,1.0083
		c-0.07227,0.2876-0.10742,0.55225-0.10742,0.79199c0.04688,0.76807,0.28711,1.34424,0.71973,1.72754
		c0.43164,0.38477,0.8877,0.60107,1.36816,0.64844l3.59961,0.14355v2.66406c-0.57617,0-1.12891-0.01221-1.65625-0.03564
		c-0.52832-0.0249-1.0332-0.03613-1.51172-0.03613c-0.96094-0.04834-1.84863-0.08447-2.66406-0.10791
		c-0.81641-0.0249-1.58398-0.03613-2.30469-0.03613c-0.67188,0-1.42773,0.01123-2.26758,0.03613
		c-0.83984,0.02344-1.74023,0.05957-2.69922,0.10791c-0.48047,0-0.98438,0.01123-1.5127,0.03613
		c-0.52832,0.02344-1.0791,0.03564-1.65527,0.03564v-2.66406l2.16016-0.21582c0.95898-0.04736,1.76367-0.50391,2.41113-1.36816
		c0.64844-0.86377,1.18848-1.82324,1.62012-2.87988l13.03223-31.60791l1.87207-4.96777l1.15234-2.95215l1.08008-2.95215h5.11133
		l18.64844,43.56006c0.38281,0.96094,0.86328,1.70459,1.43945,2.23193c0.57617,0.52881,1.41602,0.86426,2.51953,1.0083
		l1.72852,0.14355v2.66406c-0.81641,0-1.58398-0.01221-2.30371-0.03564c-0.71973-0.0249-1.41699-0.03613-2.08887-0.03613
		c-1.34375-0.04834-2.56836-0.08447-3.67188-0.10791c-1.10352-0.0249-2.13574-0.03613-3.0957-0.03613
		c-0.91211,0-1.93262,0.01123-3.05957,0.03613c-1.12793,0.02344-2.36426,0.05957-3.70801,0.10791
		c-0.67285,0-1.36816,0.01123-2.08789,0.03613c-0.7207,0.02344-1.48828,0.03564-2.30469,0.03564v-2.66406l3.81641-0.21582
		c0.38379,0,0.7207-0.18018,1.00781-0.54004c0.28809-0.35986,0.43164-0.85156,0.43164-1.47607
		c0-0.23926-0.03516-0.52734-0.10742-0.86377c-0.07227-0.33545-0.17969-0.67188-0.32422-1.00781l-3.24023-8.28027H289.79004z
		 M291.51855,55.22754h14.6875l-7.4873-18.28809L291.51855,55.22754z"></path>
	<path class="st7" d="M335.29492,59.54736h2.87988l0.50391,6.33594c0.62305,1.15186,1.5957,2.14893,2.91602,2.98779
		c1.32031,0.84082,2.7002,1.47607,4.14063,1.9082c0.7666,0.24072,1.51172,0.4209,2.23145,0.54004
		c0.71973,0.12012,1.3916,0.18018,2.0166,0.18018c3.07031,0,5.72363-0.80322,7.95508-2.41211
		c2.23242-1.60791,3.34766-3.97119,3.34766-7.09229c0-1.53564-0.47949-2.87988-1.43945-4.03174
		c-0.96094-1.15186-2.47266-2.03955-4.53516-2.66406l-10.08008-3.09619c-3.02441-0.86377-5.5332-2.33984-7.52441-4.42773
		c-1.99316-2.08789-2.98828-4.66748-2.98828-7.74023c0-5.75977,1.86035-9.85156,5.58008-12.27588
		c3.71973-2.42334,8.19629-3.63574,13.42871-3.63574c0.7666,0,1.52246,0.02441,2.26758,0.07178
		c0.74316,0.04834,1.5,0.12061,2.26758,0.21582c1.53516,0.14404,3.04785,0.396,4.53613,0.75635
		c1.4873,0.35986,2.92676,0.82764,4.31934,1.40381l0.36133,0.79199c-0.28906,0.96094-0.51758,2.17236-0.68457,3.63623
		c-0.16895,1.46436-0.27637,2.96436-0.32422,4.5c0,0.38477,0,0.75586,0,1.11572s0,0.70898,0,1.04395l-2.95215-0.07178
		l-0.43164-5.9043c-0.81641-0.86377-1.83594-1.60742-3.06055-2.23193c-1.22363-0.62305-2.50781-1.08008-3.85156-1.36768
		c-0.43164-0.0957-0.87695-0.16797-1.33203-0.21631c-0.45703-0.04736-0.90039-0.07178-1.33203-0.07178
		c-3.36035,0-5.84375,0.85254-7.45117,2.55566c-1.60938,1.70459-2.41211,3.75684-2.41211,6.15625
		c0,1.63232,0.61133,3.03613,1.83594,4.21191c1.22363,1.17676,3.15527,2.10059,5.79492,2.77197l8.20898,2.08789
		c3.31152,0.9126,5.95117,2.40088,7.91992,4.46436c1.9668,2.06445,2.95117,4.72803,2.95117,7.9917
		c0,6.09668-2.14844,10.50098-6.44336,13.21191c-4.29688,2.7124-9.17969,4.06836-14.65234,4.06836c-0.24023,0-0.49219,0-0.75586,0
		s-0.54004,0-0.82813,0c-2.30371-0.09668-4.60742-0.40869-6.91211-0.93604c-2.30371-0.52783-4.48828-1.2959-6.55176-2.3042
		c0.43262-2.11133,0.71973-4.19971,0.86426-6.26367c0.14355-2.06348,0.21582-4.12793,0.21582-6.19238V59.54736z"></path>
	<path class="st7" d="M403.19043,64.37109c0,1.53711,0.03613,2.79688,0.10742,3.78027
		c0.07227,0.98438,0.2041,1.69189,0.39648,2.12402c0.14453,0.28809,0.44336,0.50391,0.90039,0.64795
		c0.45508,0.14404,1.13965,0.26416,2.05176,0.35986l2.66406,0.14404v2.87988c-0.48047,0-0.99707-0.01221-1.54785-0.03564
		c-0.55273-0.0249-1.11621-0.03613-1.69238-0.03613c-1.2002-0.04834-2.45996-0.08447-3.78027-0.10791
		c-1.32031-0.0249-2.69922-0.03613-4.13965-0.03613s-2.83301,0.01123-4.17578,0.03613
		c-1.34473,0.02344-2.61621,0.05957-3.81543,0.10791c-0.57617,0-1.1416,0.01123-1.69336,0.03613
		c-0.55176,0.02344-1.06836,0.03564-1.54688,0.03564v-2.87988l2.66406-0.21582c0.95898-0.04736,1.65625-0.14404,2.08789-0.28809
		s0.71973-0.35986,0.86328-0.64795c0.24023-0.43213,0.38379-1.13965,0.43164-2.12402
		c0.04785-0.9834,0.07227-2.21973,0.07227-3.70801V29.52344h-8.42383c-0.04785,0.04834-0.09668,0.07178-0.14355,0.07178
		c-0.04785,0-0.09668,0-0.14355,0c-0.91309,0-1.77734,0.03613-2.59277,0.10791c-0.81641,0.07227-1.34473,0.25195-1.58398,0.54004
		c-0.14355,0.19238-0.27637,0.43213-0.39551,0.72021c-0.12109,0.28809-0.20508,0.62451-0.25195,1.00781l-0.36035,4.896h-2.87988
		c-0.04883-2.06299-0.13281-3.92383-0.25195-5.58008c-0.12109-1.65576-0.30078-3.25098-0.54004-4.7876
		c0-0.19141-0.0127-0.37158-0.03613-0.54004c-0.02539-0.16797-0.06055-0.32422-0.10742-0.46826l0.43164-0.43213
		c1.24805,0.04883,2.50781,0.08447,3.7793,0.1084c1.27148,0.02441,2.53125,0.03564,3.78027,0.03564
		c2.49512,0.04834,4.97949,0.08447,7.45215,0.1084c2.47168,0.02441,4.90723,0.03564,7.30859,0.03564
		c2.44727,0,4.90625-0.01123,7.37891-0.03564c2.47266-0.02393,4.95605-0.06006,7.45313-0.1084
		c1.24707,0,2.50684-0.01123,3.7793-0.03564c1.27148-0.02393,2.53125-0.03613,3.78027-0.03613l0.43164,0.28809
		c-0.04785,0.19238-0.08398,0.37207-0.1084,0.54004c-0.02344,0.16846-0.03516,0.34863-0.03516,0.54004
		c-0.24121,1.53662-0.4209,3.13184-0.54004,4.7876c-0.12012,1.65625-0.20508,3.54053-0.25293,5.65234l-2.87891-0.07227
		l-0.36035-5.01758c-0.04785-0.33838-0.13281-0.65332-0.25195-0.94482c-0.12012-0.29004-0.25195-0.5332-0.39551-0.72656
		c-0.24121-0.29053-0.76953-0.47266-1.58398-0.5459c-0.81738-0.07178-1.68164-0.10889-2.59277-0.10889
		c-0.04785,0-0.09668,0-0.14355,0c-0.04883,0-0.09766,0-0.14453,0h-8.42383V64.37109z"></path>
	<path class="st7" d="M441.20605,29.45117v17.28027c0.81543,0.09668,1.63086,0.15625,2.44727,0.17969
		c0.81641,0.0249,1.6084,0.03613,2.37695,0.03613h4.75195c1.24805,0.04834,2.23242-0.01465,2.95117-0.18994
		c0.7207-0.17578,1.10352-0.61572,1.15234-1.32178l0.43164-4.17627h2.88086c0,0.48047-0.0127,0.93604-0.03613,1.36816
		c-0.02441,0.43164-0.03613,0.86377-0.03613,1.2959c0,0.19238-0.01172,0.396-0.03613,0.61182
		c-0.02441,0.21631-0.03613,0.4209-0.03613,0.6123c0,0.67236-0.01172,1.3208-0.03516,1.94385
		c-0.02539,0.62451-0.03711,1.27246-0.03711,1.94385c0,0.86426,0.01172,1.72803,0.03711,2.59229
		c0.02344,0.86377,0.05859,1.72803,0.10742,2.5918c0,0.43213,0.01172,0.86426,0.03613,1.2959
		c0.02344,0.43213,0.03613,0.86426,0.03613,1.29639l-2.88086-0.07227l-0.43164-3.6001
		c-0.09668-0.95947-0.49219-1.63086-1.1875-2.01563c-0.69727-0.38379-1.66797-0.57617-2.91602-0.57617h-4.75195
		c-0.76855,0.04834-1.56055,0.08447-2.37695,0.10791c-0.81641,0.0249-1.63184,0.08447-2.44727,0.17871V69.9165
		c1.53516,0.0957,3.07129,0.16748,4.60742,0.21484c1.53613,0.04834,3.07227,0.07178,4.6084,0.07178
		c0.47949,0,0.9834-0.01123,1.5127-0.03564c0.52734-0.02393,1.05469-0.05957,1.58398-0.1084
		c1.19922-0.09521,2.32715-0.22705,3.38281-0.396c1.05566-0.16748,1.75195-0.34717,2.08789-0.53955
		c0.04785,0,0.0957-0.01172,0.14453-0.03613c0.04688-0.02393,0.07227-0.05957,0.07227-0.10791l1.65625-6.84033h2.80762
		l-0.79199,11.37598l-0.35938,0.57617c-1.20117,0.0957-2.60547,0.16748-4.21289,0.21582
		c-1.6084,0.04736-3.25195,0.07227-4.93164,0.07227c-0.38477,0-0.78125,0-1.1875,0c-0.4082,0-0.80469,0-1.18848,0
		c-1.15137,0-2.25684,0-3.31152,0c-1.05664,0-2.0166-0.0249-2.88086-0.07227c-0.48047,0-0.97168-0.01221-1.47559-0.03564
		c-0.50391-0.0249-0.99707-0.03613-1.47559-0.03613c-0.96094-0.04834-1.93359-0.08447-2.91602-0.10791
		c-0.98438-0.0249-1.98047-0.03613-2.98828-0.03613s-2.00488,0.01123-2.98828,0.03613
		c-0.98438,0.02344-1.95703,0.05957-2.91602,0.10791c-0.48047,0-0.94824,0.01123-1.4043,0.03613
		c-0.45703,0.02344-0.89941,0.03564-1.33203,0.03564v-1.65576l2.30469-1.2959c0.57617-0.28809,0.95898-0.75635,1.15234-1.4043
		c0.19043-0.64795,0.28711-1.52295,0.28711-2.62793V34.99512c0-1.48682-0.02441-2.71094-0.07227-3.67188
		c-0.04785-0.95947-0.19141-1.65576-0.43164-2.08789c-0.19238-0.38379-0.49219-0.67188-0.90039-0.86426
		c-0.4082-0.19092-1.0918-0.31152-2.05078-0.35986l-2.66406-0.28809v-2.66406c0.81445,0.04883,1.58398,0.08447,2.30273,0.1084
		c0.7207,0.02441,1.41602,0.03564,2.08887,0.03564c1.34277,0.04834,2.5918,0.08447,3.74316,0.1084
		c1.15234,0.02441,2.18359,0.03564,3.09668,0.03564c2.25488,0,4.31934-0.01123,6.19238-0.03564
		c1.87109-0.02393,3.59961-0.06006,5.18359-0.1084c0.76758,0,1.52344-0.01123,2.26758-0.03564
		c0.74414-0.02393,1.45117-0.03613,2.125-0.03613c0.38281,0,0.74316,0,1.08008,0c0.33398,0,0.6709-0.02344,1.00781-0.07227
		c0.33496,0,0.6582,0,0.97168,0c0.31152,0,0.63574,0,0.97168,0c0.28809,0,0.57617,0,0.86426,0s0.55176,0.0249,0.79199,0.07227
		c0.47852,0,0.93555,0,1.36719,0c0.43262,0,0.86523,0.0249,1.29688,0.07178c0.38281,0,0.75586,0.0127,1.11523,0.03613
		c0.36133,0.0249,0.70801,0.06104,1.04492,0.10791l0.43164,0.43213l-1.00781,10.22412h-2.5918l-0.57617-5.3999
		c-0.04883-0.38379-0.66016-0.67188-1.83594-0.86426c-1.17676-0.19141-2.46094-0.31152-3.85156-0.35986
		c-0.43262-0.04736-0.87695-0.07227-1.33203-0.07227c-0.45703,0-0.87695,0-1.26074,0c-1.53613,0-3.07227,0.0127-4.6084,0.03613
		c-1.53613,0.0249-3.07227,0.08447-4.60742,0.18018V29.45117z"></path>
	<path class="st7" d="M475.0459,64.37109V34.99512c0-1.48682-0.02539-2.71094-0.07227-3.67188
		c-0.04883-0.95947-0.19336-1.65576-0.43262-2.08789c-0.19238-0.38379-0.49316-0.67188-0.89941-0.86426
		c-0.4082-0.19092-1.09277-0.31152-2.05273-0.35986l-2.66406-0.28809v-2.66406c0.81641,0.04883,1.58398,0.08447,2.30469,0.1084
		c0.71973,0.02441,1.43945,0.03564,2.16016,0.03564c1.34277,0.04834,2.65137,0.08447,3.92383,0.1084
		c1.27148,0.02441,2.50781,0.03564,3.70703,0.03564c1.24805,0,2.47266-0.01123,3.67285-0.03564
		c1.19922-0.02393,2.42285-0.03613,3.67188-0.03613c0.38379,0,0.7793-0.01123,1.1875-0.03613
		c0.40723-0.02344,0.80371-0.03613,1.18848-0.03613c0.81543,0,1.63086-0.01123,2.44824-0.03564
		c0.81543-0.02393,1.63086-0.03613,2.44727-0.03613c0.0957,0,0.2041,0,0.32422,0c0.11914,0,0.25195,0,0.39648,0
		c3.55176,0,6.6709,0.74463,9.35938,2.23193c2.68848,1.48828,4.03223,4.29639,4.03223,8.42383
		c0,3.16797-1.04395,5.80859-3.13184,7.92041c-2.08789,2.1123-4.62012,3.72021-7.5957,4.82373l13.03125,19.65625
		c0.24023,0.43164,0.55176,0.84033,0.93652,1.22363c0.38379,0.38477,0.76758,0.74512,1.15234,1.08008
		c0.23926,0.19238,0.54004,0.34863,0.89941,0.46826c0.36035,0.12012,0.78027,0.25195,1.25977,0.396
		c0.14453,0,0.27637,0.01221,0.39648,0.03564c0.11914,0.0249,0.25195,0.06104,0.39551,0.1084v2.80762
		c-0.38477,0-0.76758-0.01221-1.15137-0.03564c-0.38477-0.0249-0.76855-0.03613-1.15234-0.03613
		c-0.19238,0-0.38477-0.01221-0.57617-0.03613c-0.19238-0.0249-0.38477-0.03613-0.57617-0.03613
		c-0.62402,0-1.22363-0.01221-1.7998-0.03564c-0.57617-0.0249-1.15137-0.03613-1.72754-0.03613
		c-0.71973,0-1.44043,0.01123-2.16016,0.03613c-0.71973,0.02344-1.44043,0.05957-2.16016,0.10791
		c-0.33594,0-0.68359,0.01123-1.04395,0.03613c-0.36035,0.02344-0.73242,0.03564-1.11621,0.03564l-16.12793-24.98389l0.50391-1.2959
		c0.24023,0.09668,0.45605,0.14404,0.64844,0.14404c0.19141,0,0.38379,0,0.57617,0c2.97559-0.04736,5.43555-0.99561,7.37988-2.84424
		c1.94336-1.84717,2.91602-4.35596,2.91602-7.52393c0-2.97559-0.91211-5.23096-2.73633-6.76807
		c-1.82422-1.53564-4.15234-2.30371-6.9834-2.30371c-0.28809,0-0.57617,0-0.86426,0s-0.57617,0.02441-0.86426,0.07178
		c-0.5293,0-1.04395,0.04834-1.54785,0.14404c-0.50391,0.09668-0.94824,0.24072-1.33203,0.43213v34.9917
		c0,1.53711,0.03613,2.79688,0.1084,3.78027c0.07129,0.98438,0.20313,1.69189,0.39551,2.12402
		c0.14355,0.28809,0.44336,0.50391,0.89941,0.64795s1.14063,0.26416,2.05273,0.35986l2.66406,0.14404v2.87988
		c-0.48047,0-0.99707-0.01221-1.54785-0.03564c-0.55273-0.0249-1.11621-0.03613-1.69238-0.03613
		c-1.2002-0.04834-2.46094-0.08447-3.7793-0.10791c-1.32129-0.0249-2.70117-0.03613-4.14063-0.03613
		s-2.83301,0.01123-4.17578,0.03613c-1.34473,0.02344-2.61719,0.05957-3.81641,0.10791c-0.57617,0-1.14063,0.01123-1.69141,0.03613
		c-0.55273,0.02344-1.06934,0.03564-1.54883,0.03564v-2.87988l2.66406-0.21582c0.95996-0.04736,1.65625-0.14404,2.08789-0.28809
		c0.43262-0.14404,0.7207-0.35986,0.86426-0.64795c0.23926-0.43213,0.38379-1.13965,0.43262-2.12402
		c0.04688-0.9834,0.07227-2.21973,0.07227-3.70801V64.37109z"></path>
	<path class="st7" d="M526.74023,64.37109V34.99512c0-1.48682-0.02441-2.71094-0.07129-3.67188
		c-0.04883-0.95947-0.19238-1.65576-0.43262-2.08789c-0.19238-0.38379-0.49219-0.67188-0.89941-0.86426
		c-0.40918-0.19092-1.09277-0.31152-2.05273-0.35986l-2.66406-0.28809v-2.66406c0.47949,0.04883,0.95996,0.08447,1.44043,0.1084
		c0.47949,0.02441,0.95996,0.03564,1.44043,0.03564c0.95898,0.04834,1.91895,0.08447,2.87988,0.1084
		c0.95898,0.02441,1.91895,0.03564,2.87988,0.03564c0.67188,0,1.34277-0.01123,2.01563-0.03564
		c0.67188-0.02393,1.34375-0.06006,2.0166-0.1084c0.33496,0,0.6709-0.01123,1.00781-0.03564
		c0.33496-0.02393,0.67188-0.03613,1.00781-0.03613c0.28809,0.38477,0.58691,0.78076,0.90039,1.18799
		c0.31152,0.4082,0.61133,0.8042,0.89941,1.18799c0.19141,0.24072,0.36035,0.45654,0.50391,0.64795
		c0.14453,0.19238,0.28809,0.38477,0.43262,0.57617c0.7666,1.00781,1.53516,2.01563,2.30371,3.02393
		c0.76758,1.00781,1.55957,1.99219,2.37598,2.95215l22.46387,26.13574V34.99512c0-1.48682-0.02441-2.71094-0.07227-3.67188
		c-0.04785-0.95947-0.19238-1.65576-0.43164-2.08789c-0.19238-0.38379-0.49316-0.67188-0.90039-0.86426
		c-0.4082-0.19092-1.0918-0.31152-2.05176-0.35986l-2.66406-0.28809v-2.66406c0.47949,0.04883,0.94727,0.08447,1.4043,0.1084
		c0.45508,0.02441,0.90039,0.03564,1.33203,0.03564c0.23926,0,0.47949,0.0127,0.71973,0.03613
		c0.24023,0.0249,0.47949,0.03613,0.71973,0.03613c0.67188,0,1.35645,0.01221,2.05273,0.03613
		c0.69531,0.02441,1.37891,0.03564,2.05176,0.03564c0.91113,0,1.82324-0.01123,2.73633-0.03564
		c0.91113-0.02393,1.82324-0.06006,2.73535-0.1084c0.47949,0,0.94727-0.01123,1.4043-0.03564
		c0.45605-0.02393,0.90039-0.03613,1.33203-0.03613v2.5918l-2.66406,0.21631c-0.91211,0.09668-1.58398,0.24072-2.01563,0.43164
		c-0.43262,0.19238-0.74512,0.48047-0.93652,0.86426c-0.19238,0.43213-0.32422,1.12842-0.39551,2.08789
		c-0.07227,0.96094-0.1084,2.2085-0.1084,3.74414v32.61572c0,0.24072,0,0.44434,0,0.6123c0,0.16846,0,0.34863,0,0.54004
		c0,0.67285,0.01172,1.33203,0.03613,1.97998c0.02344,0.64795,0.05957,1.28467,0.1084,1.90771
		c0,0.43213,0.01074,0.81689,0.03516,1.15234c0.02441,0.33496,0.03613,0.69531,0.03613,1.07959l-0.50391,0.28809l-5.9043-0.93604
		c-0.38477-0.3833-0.75586-0.7793-1.11523-1.18799c-0.36035-0.40723-0.73242-0.82764-1.11621-1.25977
		c-0.38477-0.38379-0.75586-0.79199-1.11621-1.22412s-0.73242-0.86377-1.11621-1.2959
		c-0.71973-0.81543-1.43945-1.64355-2.16016-2.48389c-0.71973-0.83936-1.43945-1.66748-2.15918-2.48438l-23.32813-28.15186h-0.14453
		v28.15186c0,1.53711,0.03613,2.79688,0.1084,3.78027c0.07227,0.98438,0.20313,1.69189,0.39551,2.12402
		c0.19141,0.33643,0.50488,0.60059,0.93652,0.79199c0.43164,0.19238,1.10352,0.33643,2.01563,0.43213l2.66406,0.14355v2.66406
		c-0.43164,0-0.87598-0.01221-1.33203-0.03564c-0.45605-0.0249-0.9248-0.03613-1.40332-0.03613
		c-0.91309-0.04834-1.8252-0.08447-2.73633-0.10791c-0.91211-0.0249-1.8252-0.03613-2.73633-0.03613
		c-0.67285,0-1.35645,0.01123-2.05176,0.03613c-0.69629,0.02344-1.38086,0.03564-2.05176,0.03564
		c-0.24121,0-0.48047,0.01123-0.7207,0.03613c-0.24023,0.02393-0.47949,0.03613-0.71973,0.03613
		c-0.43164,0-0.87598,0.01123-1.33203,0.03613c-0.45703,0.02344-0.9248,0.03564-1.4043,0.03564v-2.66406l2.66406-0.21582
		c0.95996-0.04736,1.64355-0.16748,2.05273-0.35986c0.40723-0.19141,0.70703-0.45557,0.89941-0.79199
		c0.24023-0.43213,0.38379-1.13965,0.43262-2.12402c0.04688-0.9834,0.07129-2.21973,0.07129-3.70801V64.37109z"></path>
	<path class="st7" d="M249.18359,106.99609v29.37598c0,1.53613,0.03613,2.79688,0.1084,3.7793
		c0.07129,0.98438,0.20313,1.69238,0.39551,2.12402c0.14355,0.28809,0.44336,0.50488,0.89941,0.64844
		s1.14063,0.26465,2.05273,0.36035l2.66406,0.14355v2.87988c-0.48047,0-0.99707-0.01172-1.54883-0.03613
		s-1.11523-0.03613-1.69141-0.03613c-1.2002-0.04785-2.46094-0.08398-3.7793-0.10742
		c-1.32129-0.02441-2.70117-0.03613-4.14063-0.03613s-2.83301,0.01172-4.17578,0.03613
		c-1.34473,0.02344-2.61719,0.05957-3.81641,0.10742c-0.57617,0-1.14063,0.01172-1.69141,0.03613
		c-0.55273,0.02441-1.06934,0.03613-1.54883,0.03613v-2.87988l2.66406-0.21582c0.95996-0.04785,1.65625-0.14453,2.08789-0.28809
		c0.43262-0.14355,0.7207-0.36035,0.86426-0.64844c0.23926-0.43164,0.38379-1.13965,0.43262-2.12402
		c0.04688-0.98242,0.07227-2.21875,0.07227-3.70801v-29.44727c0-1.4873-0.02539-2.71191-0.07227-3.67188
		c-0.04883-0.95996-0.19336-1.65625-0.43262-2.08887c-0.14355-0.28711-0.43164-0.51465-0.86426-0.68359
		c-0.43164-0.16797-1.12793-0.27539-2.08789-0.32422l-2.66406-0.28809v-2.87988c0.47949,0.04883,0.99609,0.08496,1.54883,0.1084
		c0.55078,0.02441,1.11523,0.03613,1.69141,0.03613c1.19922,0.04785,2.47168,0.08398,3.81641,0.10742
		c1.34277,0.02539,2.73633,0.03613,4.17578,0.03613s2.81934-0.01074,4.14063-0.03613c1.31836-0.02344,2.5791-0.05957,3.7793-0.10742
		c0.57617,0,1.13965-0.01172,1.69141-0.03613c0.55176-0.02344,1.06836-0.03613,1.54883-0.03613v2.80762l-2.66406,0.2168
		c-0.91211,0.09668-1.59668,0.22754-2.05273,0.39551c-0.45605,0.16895-0.75586,0.39648-0.89941,0.68359
		c-0.19238,0.43262-0.32422,1.12891-0.39551,2.08887c-0.07227,0.95996-0.1084,2.20801-0.1084,3.74316V106.99609z"></path>
	<path class="st7" d="M266.75098,136.37207v-29.37598c0-1.4873-0.02539-2.71191-0.07227-3.67188
		c-0.04883-0.95996-0.19238-1.65625-0.43164-2.08887c-0.19238-0.38281-0.49316-0.6709-0.90039-0.86328
		c-0.4082-0.19141-1.0918-0.31152-2.05176-0.36035l-2.66406-0.28809v-2.66406c0.47949,0.04883,0.95996,0.08496,1.44043,0.1084
		c0.47852,0.02441,0.95898,0.03613,1.43945,0.03613c0.95996,0.04785,1.91992,0.08398,2.87988,0.10742
		c0.95996,0.02539,1.91895,0.03613,2.87988,0.03613c0.67188,0,1.34375-0.01074,2.01563-0.03613
		c0.67188-0.02344,1.34375-0.05957,2.0166-0.10742c0.33496,0,0.67188-0.01172,1.00879-0.03613
		c0.33398-0.02344,0.6709-0.03613,1.00781-0.03613c0.28711,0.38477,0.58691,0.78027,0.89941,1.1875
		c0.31152,0.40918,0.6123,0.80469,0.89941,1.18848c0.19141,0.24121,0.36133,0.45703,0.50488,0.64844
		c0.14355,0.19238,0.28809,0.38477,0.43164,0.5752c0.76758,1.00879,1.53613,2.0166,2.30371,3.02441s1.55957,1.99219,2.37695,2.95215
		l22.46289,26.13574v-25.84766c0-1.4873-0.02344-2.71191-0.07129-3.67188s-0.19238-1.65625-0.43262-2.08887
		c-0.19141-0.38281-0.49219-0.6709-0.89941-0.86328c-0.40918-0.19141-1.09277-0.31152-2.05176-0.36035l-2.66406-0.28809v-2.66406
		c0.47852,0.04883,0.94727,0.08496,1.4043,0.1084c0.45508,0.02441,0.89941,0.03613,1.33203,0.03613
		c0.23926,0,0.47852,0.01172,0.71875,0.03613s0.48047,0.03516,0.7207,0.03516c0.67188,0,1.35547,0.0127,2.05176,0.03613
		c0.69531,0.02539,1.37988,0.03613,2.05176,0.03613c0.91211,0,1.82422-0.01074,2.73633-0.03613
		c0.91113-0.02344,1.82422-0.05957,2.73633-0.10742c0.47852,0,0.94727-0.01172,1.4043-0.03613
		c0.45508-0.02344,0.89941-0.03613,1.33203-0.03613v2.5918l-2.66406,0.21582c-0.91309,0.09668-1.58398,0.24121-2.0166,0.43262
		c-0.43164,0.19238-0.74512,0.48047-0.93652,0.86328c-0.19141,0.43262-0.32324,1.12891-0.39551,2.08887
		c-0.07129,0.95996-0.1084,2.20801-0.1084,3.74316v32.61621c0,0.24121,0,0.44434,0,0.6123c0,0.16895,0,0.34863,0,0.54004
		c0,0.67285,0.01172,1.33203,0.03711,1.97949c0.02344,0.64844,0.05859,1.28516,0.10742,1.9082
		c0,0.43262,0.01172,0.81738,0.03613,1.15234c0.02344,0.33496,0.03613,0.69531,0.03613,1.08008l-0.50391,0.28809l-5.9043-0.93652
		c-0.38477-0.38379-0.75586-0.7793-1.11621-1.1875c-0.36035-0.40723-0.73242-0.82813-1.11621-1.26074
		c-0.38477-0.38281-0.75586-0.79199-1.11523-1.22363c-0.36035-0.43164-0.73242-0.86426-1.11621-1.2959
		c-0.71973-0.81543-1.44043-1.64355-2.16016-2.48438c-0.71973-0.83887-1.44043-1.66699-2.16016-2.4834l-23.32715-28.15234h-0.14453
		v28.15234c0,1.53613,0.03516,2.79688,0.10742,3.7793c0.07227,0.98438,0.2041,1.69238,0.39648,2.12402
		c0.19141,0.33691,0.50391,0.60156,0.93555,0.79199c0.43164,0.19238,1.10352,0.33691,2.0166,0.43262l2.66309,0.14355v2.66406
		c-0.43164,0-0.875-0.01172-1.33203-0.03613c-0.45605-0.02441-0.92383-0.03613-1.40332-0.03613
		c-0.91211-0.04785-1.8252-0.08398-2.73535-0.10742c-0.91309-0.02441-1.8252-0.03613-2.73633-0.03613
		c-0.67285,0-1.35742,0.01172-2.05273,0.03613c-0.69531,0.02344-1.37988,0.03613-2.05176,0.03613
		c-0.24121,0-0.47949,0.01074-0.71973,0.03613c-0.24023,0.02344-0.48047,0.03516-0.7207,0.03516
		c-0.43164,0-0.87598,0.01172-1.33203,0.03613s-0.92383,0.03613-1.40332,0.03613v-2.66406l2.66406-0.21582
		c0.95996-0.04688,1.64355-0.16797,2.05176-0.36035c0.40723-0.19043,0.70801-0.45508,0.90039-0.79199
		c0.23926-0.43164,0.38281-1.13965,0.43164-2.12402c0.04688-0.98242,0.07227-2.21875,0.07227-3.70801V136.37207z"></path>
	<path class="st7" d="M347.1748,136.37207c0,1.53613,0.03516,2.79688,0.10742,3.7793
		c0.07227,0.98438,0.20313,1.69238,0.39648,2.12402c0.14355,0.28809,0.44336,0.50488,0.90039,0.64844
		c0.45508,0.14355,1.13867,0.26465,2.05078,0.36035l2.66406,0.14355v2.87988c-0.48047,0-0.99609-0.01172-1.54688-0.03613
		c-0.55273-0.02441-1.11719-0.03613-1.69336-0.03613c-1.19922-0.04785-2.45898-0.08398-3.7793-0.10742
		c-1.32031-0.02441-2.7002-0.03613-4.14063-0.03613c-1.43945,0-2.83203,0.01172-4.17578,0.03613
		c-1.34375,0.02344-2.61621,0.05957-3.81543,0.10742c-0.57617,0-1.1416,0.01172-1.69238,0.03613
		c-0.55273,0.02441-1.06836,0.03613-1.54785,0.03613v-2.87988l2.66406-0.21582c0.95996-0.04785,1.65625-0.14453,2.08789-0.28809
		c0.43262-0.14355,0.71973-0.36035,0.86426-0.64844c0.23926-0.43164,0.38281-1.13965,0.43164-2.12402
		c0.04688-0.98242,0.07227-2.21875,0.07227-3.70801v-34.91992h-8.42383c-0.04883,0.04883-0.09766,0.07227-0.14453,0.07227
		c-0.04785,0-0.0957,0-0.14355,0c-0.91309,0-1.77637,0.03613-2.59277,0.1084c-0.81641,0.07129-1.34375,0.25195-1.58398,0.54004
		c-0.14355,0.19238-0.27539,0.43164-0.39551,0.71973s-0.2041,0.62402-0.25195,1.00781l-0.36035,4.89648h-2.87891
		c-0.04883-2.06348-0.13281-3.9248-0.25195-5.58008c-0.12109-1.65625-0.30078-3.25195-0.54102-4.78809
		c0-0.19141-0.01172-0.37109-0.03516-0.54004c-0.02539-0.16797-0.06055-0.32422-0.1084-0.46777l0.43164-0.43262
		c1.24805,0.04883,2.50781,0.08496,3.78027,0.1084c1.27148,0.02441,2.53125,0.03613,3.7793,0.03613
		c2.49609,0.04785,4.98047,0.08398,7.45313,0.10742c2.4707,0.02539,4.90625,0.03613,7.30762,0.03613
		c2.44824,0,4.90723-0.01074,7.37988-0.03613c2.47168-0.02344,4.95508-0.05957,7.45215-0.10742
		c1.24707,0,2.50684-0.01172,3.78027-0.03613c1.27148-0.02344,2.53125-0.03613,3.7793-0.03613l0.43164,0.28809
		c-0.04785,0.19238-0.08398,0.37207-0.10742,0.54004c-0.02441,0.16895-0.03613,0.34863-0.03613,0.54004
		c-0.24121,1.53613-0.4209,3.13184-0.54004,4.78809c-0.12012,1.65527-0.20508,3.54004-0.25195,5.65137l-2.87988-0.07129
		l-0.36035-5.01758c-0.04785-0.33887-0.13281-0.6543-0.25195-0.94531c-0.12012-0.29004-0.25195-0.5332-0.39551-0.72656
		c-0.24121-0.29004-0.76855-0.47266-1.58398-0.5459c-0.81738-0.07227-1.68066-0.10938-2.59277-0.10938
		c-0.04785,0-0.0957,0-0.14355,0s-0.09668,0-0.14355,0h-8.42383V136.37207z"></path>
	<path class="st7" d="M385.19043,101.45215v17.2793c0.81445,0.09668,1.63086,0.15625,2.44727,0.18066
		s1.60742,0.03613,2.37598,0.03613h4.75195c1.24805,0.04785,2.23242-0.01465,2.95215-0.19043
		c0.7207-0.17578,1.10352-0.61523,1.15234-1.32227l0.43164-4.17578h2.87988c0,0.48047-0.0127,0.93555-0.03613,1.36816
		c-0.02441,0.43164-0.03516,0.86426-0.03516,1.2959c0,0.19238-0.0127,0.39551-0.03711,0.6123
		c-0.02344,0.21582-0.03516,0.4209-0.03516,0.61133c0,0.67285-0.0127,1.32129-0.03613,1.94434
		c-0.02441,0.62402-0.03613,1.27246-0.03613,1.94434c0,0.86328,0.01172,1.72754,0.03613,2.5918
		c0.02344,0.86426,0.05957,1.72754,0.1084,2.5918c0,0.43164,0.01074,0.86426,0.03516,1.2959
		c0.02344,0.43262,0.03613,0.86426,0.03613,1.2959l-2.87988-0.07129l-0.43164-3.60059
		c-0.09766-0.95996-0.49316-1.63086-1.18848-2.01563c-0.69629-0.38379-1.66797-0.57617-2.91602-0.57617h-4.75195
		c-0.76855,0.04785-1.55957,0.08398-2.37598,0.1084s-1.63281,0.08398-2.44727,0.17871v19.08203
		c1.53516,0.0957,3.07031,0.16797,4.60742,0.21484c1.53516,0.04785,3.07129,0.07227,4.60742,0.07227
		c0.48047,0,0.98438-0.01172,1.5127-0.03613c0.52734-0.02344,1.05566-0.05957,1.58398-0.1084
		c1.19922-0.0957,2.32715-0.22656,3.38379-0.39551c1.05469-0.16797,1.75195-0.34766,2.08789-0.54004
		c0.04688,0,0.0957-0.01172,0.14453-0.03613c0.04688-0.02344,0.07227-0.05957,0.07227-0.1084l1.65527-6.83984h2.80762
		l-0.79102,11.37598l-0.36035,0.57617c-1.2002,0.0957-2.60449,0.16797-4.21191,0.21582
		c-1.60938,0.04785-3.25195,0.07227-4.93164,0.07227c-0.38477,0-0.78125,0-1.18848,0c-0.4082,0-0.80371,0-1.18848,0
		c-1.15137,0-2.25586,0-3.31152,0c-1.05664,0-2.0166-0.02441-2.87988-0.07227c-0.48047,0-0.97266-0.01172-1.47656-0.03613
		s-0.99609-0.03613-1.47559-0.03613c-0.96094-0.04785-1.93262-0.08398-2.91602-0.10742
		c-0.98438-0.02441-1.97949-0.03613-2.9873-0.03613c-1.00879,0-2.00586,0.01172-2.98828,0.03613
		c-0.98438,0.02344-1.95703,0.05957-2.91602,0.10742c-0.48047,0-0.94922,0.01172-1.4043,0.03613
		c-0.45703,0.02441-0.90039,0.03613-1.33203,0.03613v-1.65625l2.30371-1.2959c0.57617-0.28809,0.95996-0.75586,1.15234-1.40332
		c0.19043-0.64844,0.28809-1.52344,0.28809-2.62793v-32.32813c0-1.4873-0.02539-2.71191-0.07227-3.67188
		c-0.04883-0.95996-0.19238-1.65625-0.43164-2.08887c-0.19336-0.38281-0.49316-0.6709-0.90039-0.86328
		c-0.4082-0.19141-1.0918-0.31152-2.05176-0.36035l-2.66406-0.28809v-2.66406c0.81543,0.04883,1.58398,0.08496,2.30371,0.1084
		c0.7207,0.02441,1.41602,0.03613,2.08789,0.03613c1.34375,0.04785,2.5918,0.08398,3.74414,0.10742
		c1.15234,0.02539,2.18359,0.03613,3.0957,0.03613c2.25586,0,4.32031-0.01074,6.19238-0.03613
		c1.87207-0.02344,3.60059-0.05957,5.18457-0.10742c0.7666,0,1.52344-0.01172,2.26758-0.03613
		c0.74414-0.02344,1.45117-0.03613,2.12402-0.03613c0.38379,0,0.74316,0,1.08008,0c0.33496,0,0.6709-0.02344,1.00781-0.07227
		c0.33496,0,0.65918,0,0.97168,0s0.63574,0,0.97266,0c0.28711,0,0.57617,0,0.86328,0c0.28906,0,0.55176,0.02539,0.79297,0.07227
		c0.47852,0,0.93555,0,1.36719,0s0.86426,0.02441,1.29688,0.07227c0.38281,0,0.75586,0.01172,1.11523,0.03613
		c0.36035,0.02441,0.70703,0.06055,1.04395,0.10742l0.43262,0.43262l-1.00781,10.22363h-2.59277l-0.5752-5.40039
		c-0.04883-0.38379-0.66113-0.6709-1.83594-0.86328c-1.17773-0.19141-2.46094-0.3125-3.85254-0.36035
		c-0.43262-0.04688-0.87598-0.07227-1.33203-0.07227c-0.45703,0-0.87598,0-1.26074,0c-1.53613,0-3.07227,0.0127-4.60742,0.03613
		c-1.53711,0.02441-3.07227,0.08398-4.60742,0.17969V101.45215z"></path>
	<path class="st7" d="M419.03027,136.37207v-29.37598c0-1.4873-0.02539-2.71191-0.07227-3.67188
		c-0.04883-0.95996-0.19336-1.65625-0.43262-2.08887c-0.19238-0.38281-0.49316-0.6709-0.89941-0.86328
		c-0.4082-0.19141-1.09277-0.31152-2.05273-0.36035l-2.66406-0.28809v-2.66406c0.81641,0.04883,1.58398,0.08496,2.30469,0.1084
		c0.71973,0.02441,1.43945,0.03613,2.16016,0.03613c1.34277,0.04785,2.65137,0.08398,3.92383,0.10742
		c1.27148,0.02539,2.50781,0.03613,3.70703,0.03613c1.24805,0,2.47266-0.01074,3.67285-0.03613
		c1.19922-0.02344,2.42285-0.03613,3.67188-0.03613c0.38379,0,0.78027-0.01074,1.18848-0.03516
		c0.40625-0.02441,0.80273-0.03613,1.1875-0.03613c0.81543,0,1.63086-0.01172,2.44727-0.03613
		c0.81641-0.02344,1.63184-0.03613,2.44922-0.03613c0.0957,0,0.20313,0,0.32422,0c0.11914,0,0.25195,0,0.39551,0
		c3.55176,0,6.6709,0.74512,9.36035,2.23242c2.6875,1.48828,4.03125,4.2959,4.03125,8.42383
		c0,3.16797-1.04395,5.80762-3.13184,7.91992s-4.62012,3.71973-7.59668,4.82422l13.0332,19.65527
		c0.23926,0.43262,0.55078,0.84082,0.93555,1.22461c0.38379,0.38477,0.76758,0.74414,1.15234,1.08008
		c0.23926,0.19238,0.53906,0.34863,0.89941,0.46777c0.36035,0.12012,0.78027,0.25195,1.26074,0.39551
		c0.14355,0,0.27539,0.0127,0.39551,0.03613c0.11914,0.02539,0.25195,0.06055,0.39551,0.1084v2.80762
		c-0.38477,0-0.76758-0.01172-1.15137-0.03613c-0.38477-0.02441-0.76855-0.03613-1.15234-0.03613
		c-0.19238,0-0.38477-0.01172-0.5752-0.03516c-0.19336-0.02539-0.38477-0.03613-0.57617-0.03613
		c-0.625,0-1.22461-0.0127-1.80078-0.03613c-0.57617-0.02441-1.15234-0.03613-1.72754-0.03613
		c-0.71973,0-1.44043,0.01172-2.16016,0.03613c-0.71973,0.02344-1.44043,0.05957-2.16016,0.10742
		c-0.33691,0-0.68457,0.01172-1.04395,0.03613s-0.73242,0.03613-1.11523,0.03613l-16.12891-24.9834l0.50391-1.29688
		c0.24023,0.09766,0.45605,0.14453,0.64844,0.14453c0.19141,0,0.38281,0,0.57617,0c2.97461-0.04688,5.43555-0.99609,7.37988-2.84375
		s2.91602-4.35645,2.91602-7.52441c0-2.97559-0.91309-5.23145-2.73633-6.76758c-1.8252-1.53613-4.15234-2.30469-6.9834-2.30469
		c-0.28906,0-0.57617,0-0.86426,0s-0.57617,0.02539-0.86426,0.07227c-0.5293,0-1.04395,0.04883-1.54785,0.14453
		c-0.50391,0.09668-0.94824,0.24023-1.33203,0.43164v34.99219c0,1.53613,0.03613,2.79688,0.1084,3.7793
		c0.07129,0.98438,0.20313,1.69238,0.39551,2.12402c0.14355,0.28809,0.44336,0.50488,0.89941,0.64844
		s1.14063,0.26465,2.05273,0.36035l2.66406,0.14355v2.87988c-0.48047,0-0.99707-0.01172-1.54883-0.03613
		s-1.11523-0.03613-1.69141-0.03613c-1.2002-0.04785-2.46094-0.08398-3.7793-0.10742
		c-1.32129-0.02441-2.70117-0.03613-4.14063-0.03613s-2.83301,0.01172-4.17578,0.03613
		c-1.34473,0.02344-2.61719,0.05957-3.81641,0.10742c-0.57617,0-1.14063,0.01172-1.69141,0.03613
		c-0.55273,0.02441-1.06934,0.03613-1.54883,0.03613v-2.87988l2.66406-0.21582c0.95996-0.04785,1.65625-0.14453,2.08789-0.28809
		c0.43262-0.14355,0.7207-0.36035,0.86426-0.64844c0.23926-0.43164,0.38379-1.13965,0.43262-2.12402
		c0.04688-0.98242,0.07227-2.21875,0.07227-3.70801V136.37207z"></path>
	<path class="st7" d="M470.72363,136.37207v-29.37598c0-1.4873-0.02441-2.71191-0.07227-3.67188s-0.19141-1.65625-0.43164-2.08887
		c-0.19141-0.38281-0.49219-0.6709-0.90039-0.86328c-0.4082-0.19141-1.0918-0.31152-2.05078-0.36035l-2.66406-0.28809v-2.66406
		c0.47852,0.04883,0.95898,0.08496,1.43945,0.1084c0.47949,0.02441,0.95898,0.03613,1.43945,0.03613
		c0.96094,0.04785,1.91992,0.08398,2.88086,0.10742c0.95898,0.02539,1.91895,0.03613,2.87988,0.03613
		c0.6709,0,1.34277-0.01074,2.01563-0.03613c0.67188-0.02344,1.34277-0.05957,2.0166-0.10742
		c0.33496,0,0.67188-0.01172,1.00781-0.03613c0.33496-0.02344,0.67188-0.03613,1.00781-0.03613
		c0.28809,0.38477,0.58789,0.78027,0.90039,1.1875c0.31055,0.40918,0.61133,0.80469,0.89941,1.18848
		c0.19141,0.24121,0.36035,0.45703,0.50488,0.64844c0.14258,0.19238,0.28711,0.38477,0.43164,0.5752
		c0.76758,1.00879,1.53516,2.0166,2.30371,3.02441c0.7666,1.00781,1.55957,1.99219,2.37598,2.95215l22.46387,26.13574v-25.84766
		c0-1.4873-0.02441-2.71191-0.07227-3.67188s-0.19238-1.65625-0.43164-2.08887c-0.19238-0.38281-0.49316-0.6709-0.90039-0.86328
		c-0.4082-0.19141-1.0918-0.31152-2.05176-0.36035l-2.66406-0.28809v-2.66406c0.47949,0.04883,0.94727,0.08496,1.4043,0.1084
		c0.45508,0.02441,0.90039,0.03613,1.33203,0.03613c0.23926,0,0.47949,0.01172,0.71973,0.03613s0.47949,0.03516,0.71973,0.03516
		c0.67188,0,1.35645,0.0127,2.05273,0.03613c0.69531,0.02539,1.37891,0.03613,2.05176,0.03613
		c0.91113,0,1.82324-0.01074,2.73633-0.03613c0.91113-0.02344,1.82324-0.05957,2.73535-0.10742
		c0.47949,0,0.94727-0.01172,1.4043-0.03613c0.45605-0.02344,0.90039-0.03613,1.33203-0.03613v2.5918l-2.66406,0.21582
		c-0.91211,0.09668-1.58398,0.24121-2.01563,0.43262c-0.43262,0.19238-0.74512,0.48047-0.93652,0.86328
		c-0.19238,0.43262-0.32422,1.12891-0.39551,2.08887c-0.07227,0.95996-0.1084,2.20801-0.1084,3.74316v32.61621
		c0,0.24121,0,0.44434,0,0.6123c0,0.16895,0,0.34863,0,0.54004c0,0.67285,0.01172,1.33203,0.03613,1.97949
		c0.02344,0.64844,0.05957,1.28516,0.1084,1.9082c0,0.43262,0.01074,0.81738,0.03516,1.15234s0.03613,0.69531,0.03613,1.08008
		l-0.50391,0.28809l-5.9043-0.93652c-0.38477-0.38379-0.75586-0.7793-1.11523-1.1875
		c-0.36035-0.40723-0.73242-0.82813-1.11621-1.26074c-0.38477-0.38281-0.75586-0.79199-1.11621-1.22363
		s-0.73242-0.86426-1.11621-1.2959c-0.71973-0.81543-1.43945-1.64355-2.16016-2.48438
		c-0.71973-0.83887-1.43945-1.66699-2.15918-2.4834l-23.32813-28.15234h-0.14453v28.15234c0,1.53613,0.03613,2.79688,0.1084,3.7793
		c0.07129,0.98438,0.2041,1.69238,0.39551,2.12402c0.19141,0.33691,0.50391,0.60156,0.93652,0.79199
		c0.43164,0.19238,1.10352,0.33691,2.0166,0.43262l2.66309,0.14355v2.66406c-0.43164,0-0.87598-0.01172-1.33203-0.03613
		s-0.9248-0.03613-1.40332-0.03613c-0.91211-0.04785-1.8252-0.08398-2.73633-0.10742
		c-0.91211-0.02441-1.82422-0.03613-2.73633-0.03613c-0.67188,0-1.35645,0.01172-2.05176,0.03613
		c-0.69629,0.02344-1.37988,0.03613-2.05176,0.03613c-0.24121,0-0.48047,0.01074-0.7207,0.03613
		c-0.24023,0.02344-0.48047,0.03516-0.71973,0.03516c-0.43164,0-0.87598,0.01172-1.33203,0.03613s-0.9248,0.03613-1.40332,0.03613
		v-2.66406l2.66406-0.21582c0.95898-0.04688,1.64258-0.16797,2.05078-0.36035c0.4082-0.19043,0.70898-0.45508,0.90039-0.79199
		c0.24023-0.43164,0.38379-1.13965,0.43164-2.12402c0.04785-0.98242,0.07227-2.21875,0.07227-3.70801V136.37207z"></path>
	<path class="st7" d="M537.75586,131.25977l-3.02441,8.06445c-0.09668,0.38477-0.17969,0.71973-0.25195,1.00781
		s-0.1084,0.55176-0.1084,0.79199c0.04785,0.76855,0.28809,1.34375,0.7207,1.72754c0.43164,0.38477,0.8877,0.60059,1.36816,0.64844
		l3.59961,0.14355v2.66406c-0.57617,0-1.12793-0.01172-1.65625-0.03613s-1.03223-0.03613-1.51172-0.03613
		c-0.96094-0.04785-1.84863-0.08398-2.66406-0.10742c-0.81641-0.02441-1.58398-0.03613-2.30371-0.03613
		c-0.67285,0-1.42871,0.01172-2.26855,0.03613c-0.83984,0.02344-1.74023,0.05957-2.69922,0.10742
		c-0.48047,0-0.98438,0.01172-1.5127,0.03613s-1.08008,0.03613-1.65625,0.03613v-2.66406l2.16016-0.21582
		c0.95996-0.04688,1.76465-0.50391,2.41211-1.36816c0.64844-0.86426,1.18848-1.82324,1.62012-2.87988l13.03223-31.60742
		l1.87207-4.96875l1.15137-2.95215l1.08008-2.95117h5.1123l18.64844,43.55957c0.38281,0.96094,0.86328,1.7041,1.43945,2.23242
		s1.41504,0.86328,2.52051,1.00781l1.72754,0.14355v2.66406c-0.81641,0-1.58398-0.01172-2.30371-0.03613
		s-1.41699-0.03613-2.08789-0.03613c-1.34473-0.04785-2.56836-0.08398-3.67188-0.10742
		c-1.10547-0.02441-2.13672-0.03613-3.09668-0.03613c-0.91211,0-1.93262,0.01172-3.05957,0.03613
		c-1.12891,0.02344-2.36523,0.05957-3.70801,0.10742c-0.67285,0-1.36816,0.01172-2.08789,0.03613
		c-0.7207,0.02441-1.48828,0.03613-2.30469,0.03613v-2.66406l3.81641-0.21582c0.38379,0,0.71973-0.17969,1.00781-0.54004
		s0.43262-0.85156,0.43262-1.47559c0-0.24023-0.03613-0.52832-0.1084-0.86426c-0.07227-0.33496-0.17969-0.67188-0.32422-1.00781
		l-3.24023-8.28027H537.75586z M539.4834,127.22754h14.68848l-7.48828-18.28809L539.4834,127.22754z"></path>
	<path class="st7" d="M600.54004,136.37207c0,1.53613,0.03613,2.79688,0.1084,3.7793
		c0.07129,0.98438,0.20313,1.69238,0.39551,2.12402c0.14453,0.28809,0.44336,0.50488,0.90039,0.64844
		c0.45508,0.14355,1.13965,0.26465,2.05176,0.36035l2.66406,0.14355v2.87988c-0.48047,0-0.99707-0.01172-1.54785-0.03613
		c-0.55273-0.02441-1.11621-0.03613-1.69238-0.03613c-1.2002-0.04785-2.45996-0.08398-3.7793-0.10742
		c-1.32129-0.02441-2.7002-0.03613-4.14063-0.03613c-1.43945,0-2.83301,0.01172-4.17578,0.03613
		c-1.34473,0.02344-2.61719,0.05957-3.81641,0.10742c-0.5752,0-1.14063,0.01172-1.69141,0.03613
		c-0.55273,0.02441-1.06934,0.03613-1.54785,0.03613v-2.87988l2.66406-0.21582c0.95898-0.04785,1.65527-0.14453,2.08789-0.28809
		c0.43164-0.14355,0.71973-0.36035,0.86328-0.64844c0.24023-0.43164,0.38379-1.13965,0.43262-2.12402
		c0.04688-0.98242,0.07129-2.21875,0.07129-3.70801v-34.91992h-8.42383c-0.04785,0.04883-0.09668,0.07227-0.14355,0.07227
		c-0.04883,0-0.09668,0-0.14453,0c-0.91211,0-1.77637,0.03613-2.5918,0.1084c-0.81641,0.07129-1.34375,0.25195-1.58398,0.54004
		c-0.14355,0.19238-0.27637,0.43164-0.39551,0.71973c-0.12109,0.28809-0.20508,0.62402-0.25195,1.00781l-0.36035,4.89648h-2.87988
		c-0.04883-2.06348-0.13281-3.9248-0.25195-5.58008c-0.12012-1.65625-0.30078-3.25195-0.54004-4.78809
		c0-0.19141-0.0127-0.37109-0.03613-0.54004c-0.02441-0.16797-0.06055-0.32422-0.1084-0.46777l0.43262-0.43262
		c1.24707,0.04883,2.50781,0.08496,3.7793,0.1084c1.27148,0.02441,2.53125,0.03613,3.78027,0.03613
		c2.49512,0.04785,4.97949,0.08398,7.45215,0.10742c2.47168,0.02539,4.90723,0.03613,7.30762,0.03613
		c2.44824,0,4.90723-0.01074,7.38086-0.03613c2.4707-0.02344,4.95508-0.05957,7.45117-0.10742
		c1.24805,0,2.50781-0.01172,3.78027-0.03613c1.27148-0.02344,2.53125-0.03613,3.78027-0.03613l0.43164,0.28809
		c-0.04785,0.19238-0.08398,0.37207-0.10742,0.54004c-0.02539,0.16895-0.03613,0.34863-0.03613,0.54004
		c-0.24121,1.53613-0.4209,3.13184-0.54004,4.78809c-0.12012,1.65527-0.20508,3.54004-0.25195,5.65137l-2.87988-0.07129
		l-0.36035-5.01758c-0.04883-0.33887-0.13281-0.6543-0.25195-0.94531c-0.12012-0.29004-0.25195-0.5332-0.39648-0.72656
		c-0.24023-0.29004-0.76758-0.47266-1.58398-0.5459c-0.81641-0.07227-1.68066-0.10938-2.5918-0.10938
		c-0.04785,0-0.09668,0-0.14355,0c-0.04883,0-0.09668,0-0.14453,0h-8.42383V136.37207z"></path>
	<path class="st7" d="M638.55566,106.99609v29.37598c0,1.53613,0.03613,2.79688,0.1084,3.7793
		c0.07129,0.98438,0.20313,1.69238,0.39551,2.12402c0.14355,0.28809,0.44336,0.50488,0.90039,0.64844
		c0.45508,0.14355,1.13965,0.26465,2.05176,0.36035l2.66406,0.14355v2.87988c-0.48047,0-0.99707-0.01172-1.54785-0.03613
		c-0.55273-0.02441-1.11621-0.03613-1.69238-0.03613c-1.2002-0.04785-2.45996-0.08398-3.78027-0.10742
		c-1.32031-0.02441-2.69922-0.03613-4.13965-0.03613s-2.83301,0.01172-4.17578,0.03613
		c-1.34473,0.02344-2.61719,0.05957-3.81641,0.10742c-0.57617,0-1.14063,0.01172-1.69141,0.03613
		c-0.55273,0.02441-1.06934,0.03613-1.54883,0.03613v-2.87988l2.66406-0.21582c0.95996-0.04785,1.65625-0.14453,2.08789-0.28809
		c0.43262-0.14355,0.7207-0.36035,0.86426-0.64844c0.24023-0.43164,0.38379-1.13965,0.43262-2.12402
		c0.04688-0.98242,0.07129-2.21875,0.07129-3.70801v-29.44727c0-1.4873-0.02441-2.71191-0.07129-3.67188
		c-0.04883-0.95996-0.19238-1.65625-0.43262-2.08887c-0.14355-0.28711-0.43164-0.51465-0.86426-0.68359
		c-0.43164-0.16797-1.12793-0.27539-2.08789-0.32422l-2.66406-0.28809v-2.87988c0.47949,0.04883,0.99609,0.08496,1.54883,0.1084
		c0.55078,0.02441,1.11523,0.03613,1.69141,0.03613c1.19922,0.04785,2.47168,0.08398,3.81641,0.10742
		c1.34277,0.02539,2.73535,0.03613,4.17578,0.03613s2.81934-0.01074,4.13965-0.03613
		c1.32031-0.02344,2.58008-0.05957,3.78027-0.10742c0.57617,0,1.13965-0.01172,1.69238-0.03613
		c0.55078-0.02344,1.06738-0.03613,1.54785-0.03613v2.80762l-2.66406,0.2168c-0.91211,0.09668-1.59668,0.22754-2.05176,0.39551
		c-0.45703,0.16895-0.75684,0.39648-0.90039,0.68359c-0.19238,0.43262-0.32422,1.12891-0.39551,2.08887
		c-0.07227,0.95996-0.1084,2.20801-0.1084,3.74316V106.99609z"></path>
	<path class="st7" d="M678.22656,96.05176c8.06348,0.04883,14.39941,2.2207,19.00781,6.51563
		c4.6084,4.29688,6.91211,10.54883,6.91211,18.75684c0,8.49512-2.49609,14.95215-7.48828,19.36719
		c-4.99219,4.41699-11.61621,6.62402-19.87207,6.62402c-8.06348,0-14.39941-2.13477-19.00781-6.40723
		c-4.60742-4.27246-6.91211-10.5127-6.91211-18.7207c0-8.49609,2.49512-14.96289,7.48828-19.40332
		c4.99121-4.43945,11.61523-6.66016,19.87207-6.66016V96.05176z M678.22656,100.08398
		c-6.67285,0.04785-11.10059,2.18457-13.28418,6.4082c-2.18457,4.22363-3.27637,9.04785-3.27637,14.47168
		c0,5.95215,1.24805,11.17188,3.74414,15.66016c2.49512,4.48828,6.28809,6.73145,11.37598,6.73145
		c6.71973,0,11.16016-2.11133,13.32031-6.33594c2.16016-4.22266,3.24023-9.02344,3.24023-14.39941
		c0-5.95117-1.24902-11.18359-3.74414-15.69629c-2.49609-4.51172-6.28906-6.76758-11.37598-6.76758V100.08398z"></path>
	<path class="st7" d="M716.09766,136.37207v-29.37598c0-1.4873-0.02441-2.71191-0.07129-3.67188
		c-0.04883-0.95996-0.19238-1.65625-0.43262-2.08887c-0.19238-0.38281-0.49219-0.6709-0.89941-0.86328
		c-0.40918-0.19141-1.09277-0.31152-2.05273-0.36035l-2.66406-0.28809v-2.66406c0.47949,0.04883,0.95996,0.08496,1.44043,0.1084
		c0.47949,0.02441,0.95996,0.03613,1.44043,0.03613c0.95898,0.04785,1.91895,0.08398,2.87988,0.10742
		c0.95898,0.02539,1.91895,0.03613,2.87988,0.03613c0.67188,0,1.34277-0.01074,2.01563-0.03613
		c0.67188-0.02344,1.34375-0.05957,2.0166-0.10742c0.33496,0,0.6709-0.01172,1.00781-0.03613
		c0.33496-0.02344,0.67188-0.03613,1.00781-0.03613c0.28809,0.38477,0.58691,0.78027,0.90039,1.1875
		c0.31152,0.40918,0.61133,0.80469,0.89941,1.18848c0.19141,0.24121,0.36035,0.45703,0.50391,0.64844
		c0.14453,0.19238,0.28809,0.38477,0.43262,0.5752c0.7666,1.00879,1.53516,2.0166,2.30371,3.02441
		c0.76758,1.00781,1.55957,1.99219,2.37598,2.95215l22.46387,26.13574v-25.84766c0-1.4873-0.02441-2.71191-0.07227-3.67188
		s-0.19238-1.65625-0.43164-2.08887c-0.19238-0.38281-0.49316-0.6709-0.90039-0.86328
		c-0.4082-0.19141-1.0918-0.31152-2.05176-0.36035l-2.66406-0.28809v-2.66406c0.47949,0.04883,0.94727,0.08496,1.4043,0.1084
		c0.45508,0.02441,0.90039,0.03613,1.33203,0.03613c0.23926,0,0.47949,0.01172,0.71973,0.03613s0.47949,0.03516,0.71973,0.03516
		c0.67188,0,1.35645,0.0127,2.05273,0.03613c0.69531,0.02539,1.37891,0.03613,2.05176,0.03613
		c0.91113,0,1.82324-0.01074,2.73633-0.03613c0.91113-0.02344,1.82324-0.05957,2.73535-0.10742
		c0.47949,0,0.94727-0.01172,1.4043-0.03613c0.45605-0.02344,0.90039-0.03613,1.33203-0.03613v2.5918L762.25,99.93945
		c-0.91211,0.09668-1.58398,0.24121-2.01563,0.43262c-0.43262,0.19238-0.74512,0.48047-0.93652,0.86328
		c-0.19238,0.43262-0.32422,1.12891-0.39551,2.08887c-0.07227,0.95996-0.1084,2.20801-0.1084,3.74316v32.61621
		c0,0.24121,0,0.44434,0,0.6123c0,0.16895,0,0.34863,0,0.54004c0,0.67285,0.01172,1.33203,0.03613,1.97949
		c0.02344,0.64844,0.05957,1.28516,0.1084,1.9082c0,0.43262,0.01074,0.81738,0.03516,1.15234s0.03613,0.69531,0.03613,1.08008
		l-0.50391,0.28809l-5.9043-0.93652c-0.38477-0.38379-0.75586-0.7793-1.11523-1.1875
		c-0.36035-0.40723-0.73242-0.82813-1.11621-1.26074c-0.38477-0.38281-0.75586-0.79199-1.11621-1.22363
		s-0.73242-0.86426-1.11621-1.2959c-0.71973-0.81543-1.43945-1.64355-2.16016-2.48438
		c-0.71973-0.83887-1.43945-1.66699-2.15918-2.4834l-23.32813-28.15234h-0.14453v28.15234c0,1.53613,0.03613,2.79688,0.1084,3.7793
		c0.07227,0.98438,0.20313,1.69238,0.39551,2.12402c0.19141,0.33691,0.50488,0.60156,0.93652,0.79199
		c0.43164,0.19238,1.10352,0.33691,2.01563,0.43262l2.66406,0.14355v2.66406c-0.43164,0-0.87598-0.01172-1.33203-0.03613
		s-0.9248-0.03613-1.40332-0.03613c-0.91309-0.04785-1.8252-0.08398-2.73633-0.10742
		c-0.91211-0.02441-1.8252-0.03613-2.73633-0.03613c-0.67285,0-1.35645,0.01172-2.05176,0.03613
		c-0.69629,0.02344-1.38086,0.03613-2.05176,0.03613c-0.24121,0-0.48047,0.01074-0.7207,0.03613
		c-0.24023,0.02344-0.47949,0.03516-0.71973,0.03516c-0.43164,0-0.87598,0.01172-1.33203,0.03613
		c-0.45703,0.02441-0.9248,0.03613-1.4043,0.03613v-2.66406l2.66406-0.21582c0.95996-0.04688,1.64355-0.16797,2.05273-0.36035
		c0.40723-0.19043,0.70703-0.45508,0.89941-0.79199c0.24023-0.43164,0.38379-1.13965,0.43262-2.12402
		c0.04688-0.98242,0.07129-2.21875,0.07129-3.70801V136.37207z"></path>
	<path class="st7" d="M783.12988,131.25977l-3.02441,8.06445c-0.09668,0.38477-0.17969,0.71973-0.25195,1.00781
		s-0.1084,0.55176-0.1084,0.79199c0.04785,0.76855,0.28809,1.34375,0.7207,1.72754c0.43164,0.38477,0.8877,0.60059,1.36816,0.64844
		l3.59961,0.14355v2.66406c-0.57617,0-1.12793-0.01172-1.65625-0.03613s-1.03223-0.03613-1.51172-0.03613
		c-0.96094-0.04785-1.84863-0.08398-2.66406-0.10742c-0.81641-0.02441-1.58398-0.03613-2.30371-0.03613
		c-0.67285,0-1.42871,0.01172-2.26855,0.03613c-0.83984,0.02344-1.74023,0.05957-2.69922,0.10742
		c-0.48047,0-0.98438,0.01172-1.5127,0.03613s-1.08008,0.03613-1.65625,0.03613v-2.66406l2.16016-0.21582
		c0.95996-0.04688,1.76465-0.50391,2.41211-1.36816c0.64844-0.86426,1.18848-1.82324,1.62012-2.87988l13.03223-31.60742
		l1.87207-4.96875l1.15137-2.95215l1.08008-2.95117h5.1123L816.25,140.25977c0.38281,0.96094,0.86328,1.7041,1.43945,2.23242
		s1.41504,0.86328,2.52051,1.00781l1.72754,0.14355v2.66406c-0.81641,0-1.58398-0.01172-2.30371-0.03613
		s-1.41699-0.03613-2.08789-0.03613c-1.34473-0.04785-2.56836-0.08398-3.67188-0.10742
		c-1.10547-0.02441-2.13672-0.03613-3.09668-0.03613c-0.91211,0-1.93262,0.01172-3.05957,0.03613
		c-1.12891,0.02344-2.36523,0.05957-3.70801,0.10742c-0.67285,0-1.36816,0.01172-2.08789,0.03613
		c-0.7207,0.02441-1.48828,0.03613-2.30469,0.03613v-2.66406l3.81641-0.21582c0.38379,0,0.71973-0.17969,1.00781-0.54004
		s0.43262-0.85156,0.43262-1.47559c0-0.24023-0.03613-0.52832-0.1084-0.86426c-0.07227-0.33496-0.17969-0.67188-0.32422-1.00781
		l-3.24023-8.28027H783.12988z M784.85742,127.22754h14.68848l-7.48828-18.28809L784.85742,127.22754z"></path>
	<path class="st7" d="M842.53027,106.99609v34.91992c1.53516,0.09668,3.07129,0.16895,4.6084,0.21582
		c1.53516,0.04785,3.07031,0.07227,4.60742,0.07227c0.47949,0,0.9834-0.01172,1.51172-0.03613
		c0.52832-0.02344,1.05566-0.05957,1.58398-0.1084c1.19922-0.0957,2.32813-0.22656,3.38477-0.39551
		c1.05469-0.16797,1.75098-0.34766,2.08789-0.54004c0.04688,0,0.0957-0.01172,0.14355-0.03613
		c0.04785-0.02344,0.07227-0.05957,0.07227-0.1084l1.65625-7.41602h2.80762l-0.79199,11.95215l-0.36035,0.57617
		c-1.2002,0.0957-2.60352,0.16797-4.21191,0.21582s-3.25195,0.07227-4.93164,0.07227c-0.38477,0-0.78125,0-1.18848,0
		c-0.4082,0-0.80371,0-1.1875,0c-1.15234,0-2.25684,0-3.3125,0s-2.01563-0.02441-2.87988-0.07227
		c-0.48047,0-0.97168-0.01172-1.47559-0.03613s-0.99707-0.03613-1.47656-0.03613c-0.95996-0.04785-1.93262-0.08398-2.91602-0.10742
		c-0.98438-0.02441-1.97949-0.03613-2.9873-0.03613s-2.00488,0.01172-2.98828,0.03613
		c-0.98438,0.02344-1.95605,0.05957-2.91602,0.10742c-0.48047,0-0.94824,0.01172-1.4043,0.03613s-0.89941,0.03613-1.33203,0.03613
		v-1.65625l2.30469-1.2959c0.57617-0.28809,0.95898-0.75586,1.15137-1.40332c0.19141-0.64844,0.28809-1.52344,0.28809-2.62793
		v-32.32813c0-1.4873-0.02441-2.71191-0.07129-3.67188c-0.04883-0.95996-0.19238-1.65625-0.43262-2.08887
		c-0.14355-0.28711-0.43164-0.51465-0.86426-0.68359c-0.43164-0.16797-1.12793-0.27539-2.08789-0.32422l-2.66406-0.28809v-2.87988
		c0.47949,0.04883,0.99609,0.08496,1.54883,0.1084c0.55078,0.02441,1.11523,0.03613,1.69141,0.03613
		c1.19922,0.04785,2.47168,0.08398,3.81641,0.10742c1.34277,0.02539,2.73535,0.03613,4.17578,0.03613
		s2.81934-0.01074,4.13965-0.03613c1.32031-0.02344,2.58008-0.05957,3.78027-0.10742c0.57617,0,1.13965-0.01172,1.69238-0.03613
		c0.55078-0.02344,1.06738-0.03613,1.54785-0.03613v2.80762l-2.66406,0.2168c-0.91211,0.09668-1.59668,0.22754-2.05176,0.39551
		c-0.45703,0.16895-0.75684,0.39648-0.90039,0.68359c-0.19238,0.43262-0.32422,1.12891-0.39551,2.08887
		c-0.07227,0.95996-0.1084,2.20801-0.1084,3.74316V106.99609z"></path>
	<path class="st7" d="M886.9541,97.05957c0.81641,0.04883,1.58398,0.08496,2.30469,0.1084
		c0.71973,0.02441,1.41504,0.03613,2.08789,0.03613c1.34277,0.04785,2.5918,0.08398,3.74414,0.10742
		c1.15137,0.02539,2.18359,0.03613,3.0957,0.03613c0.91113,0,1.81152,0,2.7002,0c0.8877,0,1.76367-0.02344,2.62793-0.07227
		c0.67188,0,1.35547,0,2.05176,0c0.69531,0,1.37891-0.02344,2.05176-0.07129c0.81641,0,1.65625-0.01172,2.52051-0.03613
		c0.86426-0.02344,1.75098-0.03613,2.66406-0.03613c0.19141,0,0.38379,0,0.57617,0c0.19043,0,0.38281,0,0.5752,0
		c3.12012,0.04785,5.9873,0.71973,8.60449,2.01563c2.61523,1.2959,3.92383,3.86426,3.92383,7.7041
		c0,3.64844-1.30859,6.28906-3.92383,7.91992c-2.61719,1.63281-5.58008,3.00098-8.89258,4.10449v0.07227
		c4.6084,0.24023,8.17285,1.25977,10.69238,3.05957c2.52051,1.7998,3.78027,4.78809,3.78027,8.96387
		c0,4.36816-1.7998,8.0166-5.40039,10.94434c-3.59961,2.92773-8.25586,4.3916-13.96777,4.3916c-0.09668,0-0.20508,0-0.32422,0
		c-0.12012,0-0.22852,0-0.32422,0c-0.52832,0-1.06836-0.01172-1.61914-0.03613c-0.55273-0.02441-1.11621-0.03613-1.69238-0.03613
		c-1.10449-0.04785-2.23242-0.08398-3.38379-0.10742c-1.15234-0.02441-2.30469-0.03613-3.45605-0.03613
		c-1.00781,0-2.00488,0.01172-2.98828,0.03613c-0.98438,0.02344-1.95605,0.05957-2.91602,0.10742
		c-0.48047,0-0.94824,0.01172-1.4043,0.03613s-0.89941,0.03613-1.33203,0.03613v-1.65625l2.30469-1.2959
		c0.57617-0.28809,0.95898-0.75586,1.15137-1.40332c0.19141-0.64844,0.28809-1.52344,0.28809-2.62793v-32.32813
		c0-1.4873-0.02441-2.71191-0.07129-3.67188c-0.04883-0.95996-0.19238-1.65625-0.43262-2.08887
		c-0.19238-0.38281-0.49219-0.6709-0.89941-0.86328c-0.40918-0.19141-1.09277-0.31152-2.05273-0.36035l-2.66406-0.28809V97.05957z
		 M903.22656,100.94824v16.34375h2.16016c3.21484,0.04785,5.75977-0.54004,7.63184-1.76465
		c1.87207-1.22363,2.80762-3.58691,2.80762-7.0918c0-2.83105-0.70801-4.82422-2.12402-5.97559
		c-1.41602-1.15234-3.44434-1.72852-6.08398-1.72852c-0.71973,0-1.43945,0.02539-2.16016,0.07227
		c-0.71973,0.04883-1.46387,0.12012-2.23145,0.21582V100.94824z M903.22656,142.05957
		c0.38379,0.14453,0.75586,0.22852,1.11621,0.25195c0.35938,0.02539,0.70703,0.06055,1.04395,0.1084c0.28809,0,0.57617,0,0.86328,0
		c0.28809,0,0.57617,0,0.86426,0c3.83984,0,6.50391-1.02246,7.99219-3.07031c1.4873-2.0459,2.23242-4.66016,2.23242-7.83887
		c0-4.0459-1.06934-6.80176-3.2041-8.27148c-2.13672-1.46875-5.05273-2.20313-8.74805-2.20313h-2.16016V142.05957z"></path>
	<path class="st7" d="M947.86621,131.25977l-3.02441,8.06445c-0.09668,0.38477-0.17969,0.71973-0.25195,1.00781
		s-0.1084,0.55176-0.1084,0.79199c0.04785,0.76855,0.28809,1.34375,0.7207,1.72754c0.43164,0.38477,0.8877,0.60059,1.36816,0.64844
		l3.59961,0.14355v2.66406c-0.57617,0-1.12793-0.01172-1.65625-0.03613s-1.03223-0.03613-1.51172-0.03613
		c-0.96094-0.04785-1.84863-0.08398-2.66406-0.10742c-0.81641-0.02441-1.58398-0.03613-2.30371-0.03613
		c-0.67285,0-1.42871,0.01172-2.26855,0.03613c-0.83984,0.02344-1.74023,0.05957-2.69922,0.10742
		c-0.48047,0-0.98438,0.01172-1.5127,0.03613s-1.08008,0.03613-1.65625,0.03613v-2.66406l2.16016-0.21582
		c0.95996-0.04688,1.76465-0.50391,2.41211-1.36816c0.64844-0.86426,1.18848-1.82324,1.62012-2.87988l13.03223-31.60742
		l1.87207-4.96875l1.15137-2.95215l1.08008-2.95117h5.1123l18.64844,43.55957c0.38281,0.96094,0.86328,1.7041,1.43945,2.23242
		s1.41504,0.86328,2.52051,1.00781l1.72754,0.14355v2.66406c-0.81641,0-1.58398-0.01172-2.30371-0.03613
		s-1.41699-0.03613-2.08789-0.03613c-1.34473-0.04785-2.56836-0.08398-3.67188-0.10742
		c-1.10547-0.02441-2.13672-0.03613-3.09668-0.03613c-0.91211,0-1.93262,0.01172-3.05957,0.03613
		c-1.12891,0.02344-2.36523,0.05957-3.70801,0.10742c-0.67285,0-1.36816,0.01172-2.08789,0.03613
		c-0.7207,0.02441-1.48828,0.03613-2.30469,0.03613v-2.66406l3.81641-0.21582c0.38379,0,0.71973-0.17969,1.00781-0.54004
		s0.43262-0.85156,0.43262-1.47559c0-0.24023-0.03613-0.52832-0.1084-0.86426c-0.07227-0.33496-0.17969-0.67188-0.32422-1.00781
		l-3.24023-8.28027H947.86621z M949.59375,127.22754h14.68848l-7.48828-18.28809L949.59375,127.22754z"></path>
	<path class="st7" d="M996.8252,136.37207v-29.37598c0-1.4873-0.02441-2.71191-0.07129-3.67188
		c-0.04883-0.95996-0.19238-1.65625-0.43262-2.08887c-0.19238-0.38281-0.49219-0.6709-0.89941-0.86328
		c-0.40918-0.19141-1.09277-0.31152-2.05273-0.36035l-2.66406-0.28809v-2.66406c0.47949,0.04883,0.95996,0.08496,1.44043,0.1084
		c0.47949,0.02441,0.95996,0.03613,1.44043,0.03613c0.95898,0.04785,1.91895,0.08398,2.87988,0.10742
		c0.95898,0.02539,1.91895,0.03613,2.87988,0.03613c0.67188,0,1.34277-0.01074,2.01563-0.03613
		c0.67188-0.02344,1.34375-0.05957,2.0166-0.10742c0.33496,0,0.6709-0.01172,1.00781-0.03613
		c0.33496-0.02344,0.67188-0.03613,1.00781-0.03613c0.28809,0.38477,0.58691,0.78027,0.90039,1.1875
		c0.31152,0.40918,0.61133,0.80469,0.89941,1.18848c0.19141,0.24121,0.36035,0.45703,0.50391,0.64844
		c0.14453,0.19238,0.28809,0.38477,0.43262,0.5752c0.7666,1.00879,1.53516,2.0166,2.30371,3.02441
		c0.76758,1.00781,1.55957,1.99219,2.37598,2.95215l22.46387,26.13574v-25.84766c0-1.4873-0.02441-2.71191-0.07227-3.67188
		s-0.19238-1.65625-0.43164-2.08887c-0.19238-0.38281-0.49316-0.6709-0.90039-0.86328
		c-0.4082-0.19141-1.0918-0.31152-2.05176-0.36035l-2.66406-0.28809v-2.66406c0.47949,0.04883,0.94727,0.08496,1.4043,0.1084
		c0.45508,0.02441,0.90039,0.03613,1.33203,0.03613c0.23926,0,0.47949,0.01172,0.71973,0.03613s0.47949,0.03516,0.71973,0.03516
		c0.67188,0,1.35645,0.0127,2.05273,0.03613c0.69531,0.02539,1.37891,0.03613,2.05176,0.03613
		c0.91113,0,1.82324-0.01074,2.73633-0.03613c0.91113-0.02344,1.82324-0.05957,2.73535-0.10742
		c0.47949,0,0.94727-0.01172,1.4043-0.03613c0.45605-0.02344,0.90039-0.03613,1.33203-0.03613v2.5918l-2.66406,0.21582
		c-0.91211,0.09668-1.58398,0.24121-2.01563,0.43262c-0.43262,0.19238-0.74512,0.48047-0.93652,0.86328
		c-0.19238,0.43262-0.32422,1.12891-0.39551,2.08887c-0.07227,0.95996-0.1084,2.20801-0.1084,3.74316v32.61621
		c0,0.24121,0,0.44434,0,0.6123c0,0.16895,0,0.34863,0,0.54004c0,0.67285,0.01172,1.33203,0.03613,1.97949
		c0.02344,0.64844,0.05957,1.28516,0.1084,1.9082c0,0.43262,0.01074,0.81738,0.03516,1.15234s0.03613,0.69531,0.03613,1.08008
		l-0.50391,0.28809l-5.9043-0.93652c-0.38477-0.38379-0.75586-0.7793-1.11523-1.1875
		c-0.36035-0.40723-0.73242-0.82813-1.11621-1.26074c-0.38477-0.38281-0.75586-0.79199-1.11621-1.22363
		s-0.73242-0.86426-1.11621-1.2959c-0.71973-0.81543-1.43945-1.64355-2.16016-2.48438
		c-0.71973-0.83887-1.43945-1.66699-2.15918-2.4834l-23.32813-28.15234h-0.14453v28.15234c0,1.53613,0.03613,2.79688,0.1084,3.7793
		c0.07227,0.98438,0.20313,1.69238,0.39551,2.12402c0.19141,0.33691,0.50488,0.60156,0.93652,0.79199
		c0.43164,0.19238,1.10352,0.33691,2.01563,0.43262l2.66406,0.14355v2.66406c-0.43164,0-0.87598-0.01172-1.33203-0.03613
		s-0.9248-0.03613-1.40332-0.03613c-0.91309-0.04785-1.8252-0.08398-2.73633-0.10742
		c-0.91211-0.02441-1.8252-0.03613-2.73633-0.03613c-0.67285,0-1.35645,0.01172-2.05176,0.03613
		c-0.69629,0.02344-1.38086,0.03613-2.05176,0.03613c-0.24121,0-0.48047,0.01074-0.7207,0.03613
		c-0.24023,0.02344-0.47949,0.03516-0.71973,0.03516c-0.43164,0-0.87598,0.01172-1.33203,0.03613
		c-0.45703,0.02441-0.9248,0.03613-1.4043,0.03613v-2.66406l2.66406-0.21582c0.95996-0.04688,1.64355-0.16797,2.05273-0.36035
		c0.40723-0.19043,0.70703-0.45508,0.89941-0.79199c0.24023-0.43164,0.38379-1.13965,0.43262-2.12402
		c0.04688-0.98242,0.07129-2.21875,0.07129-3.70801V136.37207z"></path>
	<path class="st7" d="M1057.08887,136.37207v-29.37598c0-1.4873-0.02441-2.71191-0.07129-3.67188
		c-0.04883-0.95996-0.19238-1.65625-0.43262-2.08887c-0.14355-0.28711-0.43164-0.51465-0.86426-0.68359
		c-0.43164-0.16797-1.12793-0.27539-2.08789-0.32422l-2.66406-0.28809v-2.87988c0.47949,0.04883,0.99609,0.08496,1.54883,0.1084
		c0.55078,0.02441,1.11523,0.03613,1.69141,0.03613c1.19922,0.04785,2.47168,0.08398,3.81641,0.10742
		c1.34277,0.02539,2.73535,0.03613,4.17578,0.03613s2.81934-0.01074,4.13965-0.03613
		c1.32031-0.02344,2.58008-0.05957,3.78027-0.10742c0.57617,0,1.13965-0.01172,1.69238-0.03613
		c0.55078-0.02344,1.06738-0.03613,1.54785-0.03613v2.80762l-2.66406,0.2168c-0.91211,0.09668-1.59668,0.22754-2.05176,0.39551
		c-0.45703,0.16895-0.75684,0.39648-0.90039,0.68359c-0.19238,0.43262-0.32422,1.12891-0.39551,2.08887
		c-0.07227,0.95996-0.1084,2.20801-0.1084,3.74316v13.24805c0,0.19238,0.05957,0.32422,0.17969,0.39648
		c0.11914,0.07227,0.27539,0.10742,0.46777,0.10742L1081.4248,107.5c0.38379-0.33594,0.80371-0.74414,1.26074-1.22461
		c0.45508-0.47852,0.92285-0.98242,1.40332-1.51172c0.04785-0.04688,0.0957-0.0957,0.14453-0.14355
		c0.04688-0.04785,0.0957-0.11914,0.14355-0.2168c0.47949-0.47852,0.94727-0.97168,1.4043-1.47559
		c0.45508-0.50391,0.875-0.97168,1.25977-1.4043c0.38379-0.43164,0.67188-0.86328,0.86426-1.2959
		c0.19141-0.43164,0.28809-0.86328,0.28809-1.2959v-1.87207c0.38379,0.04883,0.75586,0.08496,1.11621,0.1084
		c0.35938,0.02441,0.70703,0.03613,1.04395,0.03613c0.19043,0,0.38281,0.01172,0.5752,0.03613
		c0.19141,0.02441,0.38379,0.03516,0.57617,0.03516c0.52832,0,1.06836,0.0127,1.62012,0.03613
		c0.55176,0.02539,1.0918,0.03613,1.62012,0.03613c0.52734,0,1.06738-0.01074,1.62012-0.03613
		c0.55078-0.02344,1.11621-0.03613,1.69238-0.03613c0.14355,0,0.31152-0.01074,0.50391-0.03516
		c0.19043-0.02441,0.38281-0.03613,0.5752-0.03613c0.33594,0,0.69531-0.01172,1.08008-0.03613
		c0.38379-0.02344,0.74414-0.03613,1.08008-0.03613v2.73633c-0.09668,0.04785-0.2041,0.08398-0.32422,0.10742
		c-0.12012,0.02539-0.22754,0.03613-0.32324,0.03613c-1.39258,0.14453-2.7002,0.33691-3.92383,0.57617
		c-1.22461,0.24023-2.34082,0.83984-3.34863,1.7998l-15.9834,14.83203l19.15137,22.53613
		c0.76758,0.96094,1.66699,1.8125,2.7002,2.55566c1.03125,0.74512,2.31543,1.11621,3.85156,1.11621v2.87988
		c-0.38477,0-0.78027-0.01172-1.1875-0.03613c-0.4082-0.02441-0.82813-0.03613-1.25977-0.03613
		c-0.19238,0-0.38477-0.01172-0.57617-0.03516c-0.19238-0.02539-0.38477-0.03613-0.57617-0.03613
		c-0.62402,0-1.23633-0.0127-1.83594-0.03613c-0.60059-0.02441-1.21289-0.03613-1.83594-0.03613
		c-0.81641,0-1.63281,0.01172-2.44824,0.03613c-0.81641,0.02344-1.63184,0.05957-2.44824,0.10742
		c-0.38477,0-0.78027,0.01172-1.1875,0.03613c-0.4082,0.02441-0.82813,0.03613-1.25977,0.03613l-14.97656-17.92773
		c-0.24023-0.23926-0.50391-0.52734-0.79199-0.86426c-0.28809-0.33496-0.57617-0.69531-0.86328-1.08008
		c-0.09766-0.14355-0.2168-0.28809-0.36035-0.43164c-0.14453-0.14453-0.26465-0.26367-0.36035-0.36035
		c-0.57617-0.6709-1.14063-1.27148-1.69141-1.7998c-0.55273-0.52734-1.02051-0.8877-1.4043-1.08008h-0.07227h-0.07227
		c-0.19238,0-0.33594,0.04883-0.43164,0.14453c-0.09668,0.09668-0.16895,0.21582-0.21582,0.35938c0,0.04883,0,0.09668,0,0.14453
		v12.95996c0,1.53613,0.03613,2.79688,0.1084,3.7793c0.07129,0.98438,0.20313,1.69238,0.39551,2.12402
		c0.14355,0.28809,0.44336,0.50488,0.90039,0.64844c0.45508,0.14355,1.13965,0.26465,2.05176,0.36035l2.66406,0.14355v2.87988
		c-0.48047,0-0.99707-0.01172-1.54785-0.03613c-0.55273-0.02441-1.11621-0.03613-1.69238-0.03613
		c-1.2002-0.04785-2.45996-0.08398-3.78027-0.10742c-1.32031-0.02441-2.69922-0.03613-4.13965-0.03613
		s-2.83301,0.01172-4.17578,0.03613c-1.34473,0.02344-2.61719,0.05957-3.81641,0.10742c-0.57617,0-1.14063,0.01172-1.69141,0.03613
		c-0.55273,0.02441-1.06934,0.03613-1.54883,0.03613v-2.87988l2.66406-0.21582c0.95996-0.04785,1.65625-0.14453,2.08789-0.28809
		c0.43262-0.14355,0.7207-0.36035,0.86426-0.64844c0.24023-0.43164,0.38379-1.13965,0.43262-2.12402
		c0.04688-0.98242,0.07129-2.21875,0.07129-3.70801V136.37207z"></path>
</g>
</svg>